<svg width="72" height="72" viewBox="0 0 72 72" fill="none" xmlns="http://www.w3.org/2000/svg">
<g filter="url(#filter0_d)">
<path fill-rule="evenodd" clip-rule="evenodd" d="M36 52C44.8366 52 52 44.8366 52 36C52 27.1634 44.8366 20 36 20C27.1634 20 20 27.1634 20 36C20 44.8366 27.1634 52 36 52ZM41.3333 25.4907C40.5833 25.3858 39.5278 25.3333 38.1667 25.3333C36.5648 25.3333 35.2824 25.7813 34.3194 26.6773C33.3565 27.5733 32.875 28.8342 32.875 30.4601V33.3185H29.3333V37.1996H32.875V47.1515H37.125V37.1996H40.6528L41.1944 33.3185H37.125V30.8403C37.125 30.211 37.2639 29.7389 37.5417 29.4242C37.8194 29.1096 38.3565 28.9522 39.1528 28.9522H41.3333V25.4907Z"/>
</g>
<defs>
<filter id="filter0_d" x="0" y="0" width="72" height="72" filterUnits="userSpaceOnUse" color-interpolation-filters="sRGB">
<feFlood flood-opacity="0" result="BackgroundImageFix"/>
<feColorMatrix in="SourceAlpha" type="matrix" values="0 0 0 0 0 0 0 0 0 0 0 0 0 0 0 0 0 0 127 0"/>
<feOffset/>
<feGaussianBlur stdDeviation="10"/>
<feColorMatrix type="matrix" values="0 0 0 0 0 0 0 0 0 0 0 0 0 0 0 0 0 0 0.25 0"/>
<feBlend mode="normal" in2="BackgroundImageFix" result="effect1_dropShadow"/>
<feBlend mode="normal" in="SourceGraphic" in2="effect1_dropShadow" result="shape"/>
</filter>
</defs>
</svg>

