<svg width="976" height="424" viewBox="0 0 976 424" fill="none" xmlns="http://www.w3.org/2000/svg">
<rect x="325.503" y="-58.09" width="59" height="172" rx="1.5" transform="rotate(-16.4061 325.503 -58.09)" stroke="#000851"/>
<rect x="361.808" y="6.79785" width="33" height="2" rx="1" transform="rotate(-16.4061 361.808 6.79785)" fill="#000851"/>
<rect x="363.22" y="11.5942" width="26" height="2" rx="1" transform="rotate(-16.4061 363.22 11.5942)" fill="#000851"/>
<circle cx="354.643" cy="12.556" r="3" transform="rotate(-16.4061 354.643 12.556)" stroke="#000851"/>
<rect x="367.457" y="25.9834" width="33" height="2" rx="1" transform="rotate(-16.4061 367.457 25.9834)" fill="#000851"/>
<rect x="368.869" y="30.7798" width="26" height="2" rx="1" transform="rotate(-16.4061 368.869 30.7798)" fill="#000851"/>
<circle cx="360.292" cy="31.7417" r="3" transform="rotate(-16.4061 360.292 31.7417)" stroke="#000851"/>
<rect x="373.106" y="45.1692" width="33" height="2" rx="1" transform="rotate(-16.4061 373.106 45.1692)" fill="#000851"/>
<rect x="374.518" y="49.9656" width="26" height="2" rx="1" transform="rotate(-16.4061 374.518 49.9656)" fill="#000851"/>
<circle cx="365.941" cy="50.9273" r="3" transform="rotate(-16.4061 365.941 50.9273)" stroke="#000851"/>
<rect x="378.755" y="64.3547" width="33" height="2" rx="1" transform="rotate(-16.4061 378.755 64.3547)" fill="#000851"/>
<rect x="380.167" y="69.1511" width="26" height="2" rx="1" transform="rotate(-16.4061 380.167 69.1511)" fill="#000851"/>
<circle cx="371.589" cy="70.1131" r="3" transform="rotate(-16.4061 371.589 70.1131)" stroke="#000851"/>
<rect x="384.404" y="83.5405" width="33" height="2" rx="1" transform="rotate(-16.4061 384.404 83.5405)" fill="#000851"/>
<rect x="385.816" y="88.3369" width="26" height="2" rx="1" transform="rotate(-16.4061 385.816 88.3369)" fill="#000851"/>
<circle cx="377.238" cy="89.2989" r="3" transform="rotate(-16.4061 377.238 89.2989)" stroke="#000851"/>
<rect x="465.879" y="34.5327" width="126" height="1" transform="rotate(-16.4061 465.879 34.5327)" fill="#000851"/>
<rect x="467.574" y="40.2886" width="98" height="1" transform="rotate(-16.4061 467.574 40.2886)" fill="#000851"/>
<rect x="469.268" y="46.0442" width="126" height="1" transform="rotate(-16.4061 469.268 46.0442)" fill="#000851"/>
<rect x="470.681" y="50.8406" width="98" height="1" transform="rotate(-16.4061 470.681 50.8406)" fill="#000851"/>
<rect x="472.375" y="56.5964" width="126" height="1" transform="rotate(-16.4061 472.375 56.5964)" fill="#000851"/>
<rect x="473.788" y="61.3928" width="98" height="1" transform="rotate(-16.4061 473.788 61.3928)" fill="#000851"/>
<rect x="455.212" y="31.94" width="147" height="41" rx="1.5" transform="rotate(-16.4061 455.212 31.94)" stroke="#000851"/>
<rect x="445.609" y="-0.67574" width="147" height="25" rx="1.5" transform="rotate(-16.4061 445.609 -0.67574)" stroke="#000851"/>
<rect x="314.437" y="-76.2018" width="298" height="198" rx="3" transform="rotate(-16.4061 314.437 -76.2018)" stroke="#000851" stroke-width="2"/>
<rect x="655.415" y="-45.7702" width="59" height="167" rx="1.5" transform="rotate(-16.4061 655.415 -45.7702)" stroke="#000851"/>
<rect x="676.479" y="2.75635" width="34" height="2" rx="1" transform="rotate(-16.4061 676.479 2.75635)" fill="#000851"/>
<rect x="680.715" y="17.1455" width="43" height="2" rx="1" transform="rotate(-16.4061 680.715 17.1455)" fill="#000851"/>
<rect x="682.128" y="21.9419" width="34" height="2" rx="1" transform="rotate(-16.4061 682.128 21.9419)" fill="#000851"/>
<rect x="686.364" y="36.3313" width="43" height="2" rx="1" transform="rotate(-16.4061 686.364 36.3313)" fill="#000851"/>
<rect x="687.777" y="41.1277" width="34" height="2" rx="1" transform="rotate(-16.4061 687.777 41.1277)" fill="#000851"/>
<rect x="787.031" y="-0.605225" width="33" height="1" transform="rotate(-16.4061 787.031 -0.605225)" fill="#000851"/>
<rect x="788.16" y="3.23169" width="25" height="1" transform="rotate(-16.4061 788.16 3.23169)" fill="#000851"/>
<rect x="759.038" y="-5.394" width="76" height="25" rx="1.5" transform="rotate(-16.4061 759.038 -5.394)" stroke="#000851"/>
<rect x="764.005" y="-2.68673" width="17" height="17" rx="1.5" transform="rotate(-16.4061 764.005 -2.68673)" fill="#000851" stroke="#000851"/>
<rect x="794.374" y="24.3359" width="33" height="1" transform="rotate(-16.4061 794.374 24.3359)" fill="#000851"/>
<rect x="833.086" y="21.2773" width="9" height="1" rx="0.5" transform="rotate(-16.4061 833.086 21.2773)" fill="#000851"/>
<rect x="838.336" y="24.9441" width="9" height="1" rx="0.5" transform="rotate(-106.406 838.336 24.9441)" fill="#000851"/>
<rect x="795.504" y="28.1731" width="25" height="1" transform="rotate(-16.4061 795.504 28.1731)" fill="#000851"/>
<rect x="796.634" y="32.0103" width="33" height="1" transform="rotate(-16.4061 796.634 32.0103)" fill="#000851"/>
<rect x="797.763" y="35.8474" width="25" height="1" transform="rotate(-16.4061 797.763 35.8474)" fill="#000851"/>
<rect x="768.641" y="27.2215" width="76" height="25" rx="1.5" transform="rotate(-16.4061 768.641 27.2215)" stroke="#000851"/>
<rect x="773.608" y="29.929" width="17" height="17" rx="1.5" transform="rotate(-16.4061 773.608 29.929)" stroke="#000851"/>
<rect x="803.977" y="56.9517" width="33" height="1" transform="rotate(-16.4061 803.977 56.9517)" fill="#000851"/>
<rect x="842.689" y="53.8931" width="9" height="1" rx="0.5" transform="rotate(-16.4061 842.689 53.8931)" fill="#000851"/>
<rect x="847.939" y="57.5598" width="9" height="1" rx="0.5" transform="rotate(-106.406 847.939 57.5598)" fill="#000851"/>
<rect x="805.107" y="60.7888" width="25" height="1" transform="rotate(-16.4061 805.107 60.7888)" fill="#000851"/>
<rect x="806.237" y="64.626" width="33" height="1" transform="rotate(-16.4061 806.237 64.626)" fill="#000851"/>
<rect x="807.366" y="68.4631" width="25" height="1" transform="rotate(-16.4061 807.366 68.4631)" fill="#000851"/>
<rect x="778.244" y="59.8372" width="76" height="25" rx="1.5" transform="rotate(-16.4061 778.244 59.8372)" stroke="#000851"/>
<rect x="783.211" y="62.5445" width="17" height="17" rx="1.5" transform="rotate(-16.4061 783.211 62.5445)" fill="#000851" stroke="#000851"/>
<rect x="885.677" y="1.62329" width="25" height="1" transform="rotate(-16.4061 885.677 1.62329)" fill="#000851"/>
<rect x="886.806" y="5.46045" width="33" height="1" transform="rotate(-16.4061 886.806 5.46045)" fill="#000851"/>
<rect x="887.936" y="9.29761" width="25" height="1" transform="rotate(-16.4061 887.936 9.29761)" fill="#000851"/>
<rect x="858.814" y="0.671916" width="76" height="25" rx="1.5" transform="rotate(-16.4061 858.814 0.671916)" stroke="#000851"/>
<rect x="863.781" y="3.37919" width="17" height="17" rx="1.5" transform="rotate(-16.4061 863.781 3.37919)" fill="#000851" stroke="#000851"/>
<rect x="894.15" y="30.4019" width="33" height="1" transform="rotate(-16.4061 894.15 30.4019)" fill="#000851"/>
<rect x="932.862" y="27.3433" width="9" height="1" rx="0.5" transform="rotate(-16.4061 932.862 27.3433)" fill="#000851"/>
<rect x="938.112" y="31.01" width="9" height="1" rx="0.5" transform="rotate(-106.406 938.112 31.01)" fill="#000851"/>
<rect x="895.28" y="34.239" width="25" height="1" transform="rotate(-16.4061 895.28 34.239)" fill="#000851"/>
<rect x="896.409" y="38.0762" width="33" height="1" transform="rotate(-16.4061 896.409 38.0762)" fill="#000851"/>
<rect x="897.539" y="41.9133" width="25" height="1" transform="rotate(-16.4061 897.539 41.9133)" fill="#000851"/>
<rect x="868.417" y="33.2874" width="76" height="25" rx="1.5" transform="rotate(-16.4061 868.417 33.2874)" stroke="#000851"/>
<rect x="873.384" y="35.9949" width="17" height="17" rx="1.5" transform="rotate(-16.4061 873.384 35.9949)" stroke="#000851"/>
<rect x="640.059" y="-67.8312" width="298" height="198" rx="3" transform="rotate(-16.4061 640.059 -67.8312)" stroke="#000851" stroke-width="2"/>
<path d="M719.211 140.808C719.476 140.73 719.627 140.452 719.549 140.187C719.471 139.922 719.193 139.771 718.928 139.849L719.211 140.808ZM709.997 142.631C709.865 142.874 709.954 143.177 710.197 143.309L714.148 145.463C714.39 145.595 714.694 145.506 714.826 145.263C714.958 145.021 714.869 144.717 714.626 144.585L711.114 142.671L713.029 139.159C713.161 138.916 713.071 138.612 712.829 138.48C712.587 138.348 712.283 138.437 712.151 138.68L709.997 142.631ZM718.928 139.849L710.295 142.391L710.577 143.35L719.211 140.808L718.928 139.849Z" fill="#000851"/>
<circle cx="972.659" cy="65.1421" r="6" transform="rotate(-16.4061 972.659 65.1421)" fill="#000851" stroke="#000851"/>
<rect x="925.522" y="207.763" width="9" height="1" rx="0.5" transform="rotate(-16.4061 925.522 207.763)" fill="#000851"/>
<rect x="927.222" y="231.239" width="46" height="1" transform="rotate(-16.4061 927.222 231.239)" fill="#000851"/>
<rect x="928.352" y="235.076" width="36" height="1" transform="rotate(-16.4061 928.352 235.076)" fill="#000851"/>
<rect x="768.624" y="161.702" width="108" height="120" rx="1.5" transform="rotate(-16.4061 768.624 161.702)" stroke="#000851"/>
<rect x="741.764" y="169.611" width="24" height="27" rx="1.5" transform="rotate(-16.4061 741.764 169.611)" stroke="#000851"/>
<rect x="750.52" y="199.348" width="24" height="27" rx="1.5" transform="rotate(-16.4061 750.52 199.348)" stroke="#000851"/>
<rect x="759.276" y="229.086" width="24" height="27" rx="1.5" transform="rotate(-16.4061 759.276 229.086)" stroke="#000851"/>
<rect x="768.032" y="258.824" width="24" height="27" rx="1.5" transform="rotate(-16.4061 768.032 258.824)" stroke="#000851"/>
<rect x="911.349" y="179.099" width="76" height="6" rx="3" transform="rotate(-16.4061 911.349 179.099)" stroke="#000851"/>
<rect x="911.349" y="179.099" width="48" height="6" rx="3" transform="rotate(-16.4061 911.349 179.099)" fill="#000851" stroke="#000851"/>
<rect x="908.242" y="168.547" width="76" height="6" rx="3" transform="rotate(-16.4061 908.242 168.547)" stroke="#000851"/>
<rect x="908.242" y="168.547" width="27" height="6" rx="3" transform="rotate(-16.4061 908.242 168.547)" fill="#000851" stroke="#000851"/>
<rect x="905.135" y="157.994" width="76" height="6" rx="3" transform="rotate(-16.4061 905.135 157.994)" stroke="#000851"/>
<rect x="905.135" y="157.994" width="66" height="6" rx="3" transform="rotate(-16.4061 905.135 157.994)" fill="#000851" stroke="#000851"/>
<rect x="902.028" y="147.442" width="76" height="6" rx="3" transform="rotate(-16.4061 902.028 147.442)" stroke="#000851"/>
<rect x="918.692" y="204.04" width="76" height="12" rx="6" transform="rotate(-16.4061 918.692 204.04)" stroke="#000851"/>
<rect x="895.476" y="126.959" width="77" height="2" rx="1" transform="rotate(-16.4061 895.476 126.959)" fill="#000851"/>
<rect x="735.212" y="149.127" width="116" height="2" rx="1" transform="rotate(-16.4061 735.212 149.127)" fill="#000851"/>
<rect x="896.888" y="131.755" width="60" height="2" rx="1" transform="rotate(-16.4061 896.888 131.755)" fill="#000851"/>
<rect x="699.372" y="133.618" width="298" height="198" rx="3" transform="rotate(-16.4061 699.372 133.618)" stroke="#000851" stroke-width="2"/>
<rect x="0.33842" y="-0.620864" width="27" height="8" rx="3.5" transform="matrix(0.959284 -0.282444 -0.282444 -0.959284 444.53 336.747)" fill="#000851" stroke="#000851"/>
<rect x="659.91" y="273.979" width="189" height="8" rx="3.5" transform="rotate(163.594 659.91 273.979)" stroke="#000851"/>
<circle cx="668.373" cy="267.318" r="4" transform="rotate(-16.4061 668.373 267.318)" stroke="#000851"/>
<circle cx="681.803" cy="263.364" r="4" transform="rotate(-16.4061 681.803 263.364)" stroke="#000851"/>
<circle cx="695.233" cy="259.409" r="4" transform="rotate(-16.4061 695.233 259.409)" fill="#000851" stroke="#000851"/>
<circle cx="708.663" cy="255.455" r="4" transform="rotate(-16.4061 708.663 255.455)" stroke="#000851"/>
<circle r="4" transform="matrix(-0.959284 0.282444 0.282444 0.959284 564.498 332.303)" stroke="#000851"/>
<rect x="517.546" y="335.702" width="57" height="64" rx="1.5" transform="rotate(-16.4061 517.546 335.702)" stroke="#000851"/>
<rect x="535.732" y="385.076" width="41" height="1" transform="rotate(-16.4061 535.732 385.076)" fill="#000851"/>
<rect x="537.427" y="390.832" width="41" height="1" transform="rotate(-16.4061 537.427 390.832)" fill="#000851"/>
<rect x="536.58" y="387.954" width="32" height="1" transform="rotate(-16.4061 536.58 387.954)" fill="#000851"/>
<rect x="517.546" y="335.702" width="57" height="48" rx="1.5" transform="rotate(-16.4061 517.546 335.702)" stroke="#000851"/>
<circle r="4" transform="matrix(-0.959284 0.282444 0.282444 0.959284 633.566 311.967)" stroke="#000851"/>
<rect x="586.615" y="315.366" width="57" height="64" rx="1.5" transform="rotate(-16.4061 586.615 315.366)" stroke="#000851"/>
<rect x="604.801" y="364.74" width="41" height="1" transform="rotate(-16.4061 604.801 364.74)" fill="#000851"/>
<rect x="606.495" y="370.496" width="41" height="1" transform="rotate(-16.4061 606.495 370.496)" fill="#000851"/>
<rect x="605.648" y="367.618" width="32" height="1" transform="rotate(-16.4061 605.648 367.618)" fill="#000851"/>
<rect x="586.615" y="315.366" width="57" height="48" rx="1.5" transform="rotate(-16.4061 586.615 315.366)" stroke="#000851"/>
<circle r="4" transform="matrix(-0.959284 0.282444 0.282444 0.959284 702.635 291.631)" stroke="#000851"/>
<rect x="655.683" y="295.03" width="57" height="64" rx="1.5" transform="rotate(-16.4061 655.683 295.03)" stroke="#000851"/>
<rect x="673.869" y="344.404" width="41" height="1" transform="rotate(-16.4061 673.869 344.404)" fill="#000851"/>
<rect x="675.564" y="350.16" width="41" height="1" transform="rotate(-16.4061 675.564 350.16)" fill="#000851"/>
<rect x="674.717" y="347.282" width="32" height="1" transform="rotate(-16.4061 674.717 347.282)" fill="#000851"/>
<rect x="655.683" y="295.03" width="57" height="48" rx="1.5" transform="rotate(-16.4061 655.683 295.03)" stroke="#000851"/>
<circle r="4" transform="matrix(-0.959284 0.282444 0.282444 0.959284 586.811 408.086)" stroke="#000851"/>
<rect x="539.86" y="411.486" width="57" height="64" rx="1.5" transform="rotate(-16.4061 539.86 411.486)" stroke="#000851"/>
<rect x="539.86" y="411.486" width="57" height="48" rx="1.5" transform="rotate(-16.4061 539.86 411.486)" stroke="#000851"/>
<circle r="4" transform="matrix(-0.959284 0.282444 0.282444 0.959284 655.88 387.75)" stroke="#000851"/>
<rect x="608.928" y="391.15" width="57" height="64" rx="1.5" transform="rotate(-16.4061 608.928 391.15)" stroke="#000851"/>
<rect x="608.928" y="391.15" width="57" height="48" rx="1.5" transform="rotate(-16.4061 608.928 391.15)" stroke="#000851"/>
<circle r="4" transform="matrix(-0.959284 0.282444 0.282444 0.959284 724.948 367.414)" stroke="#000851"/>
<rect x="677.996" y="370.814" width="57" height="64" rx="1.5" transform="rotate(-16.4061 677.996 370.814)" stroke="#000851"/>
<rect x="696.182" y="420.188" width="41" height="1" transform="rotate(-16.4061 696.182 420.188)" fill="#000851"/>
<rect x="697.877" y="425.943" width="41" height="1" transform="rotate(-16.4061 697.877 425.943)" fill="#000851"/>
<rect x="697.03" y="423.065" width="32" height="1" transform="rotate(-16.4061 697.03 423.065)" fill="#000851"/>
<rect x="677.996" y="370.814" width="57" height="48" rx="1.5" transform="rotate(-16.4061 677.996 370.814)" stroke="#000851"/>
<rect x="469.526" y="351.405" width="33.48" height="1.23769" transform="rotate(-16.4061 469.526 351.405)" fill="#000851"/>
<rect x="470.575" y="354.967" width="26.04" height="1.23769" transform="rotate(-16.4061 470.575 354.967)" fill="#000851"/>
<circle cx="457.621" cy="356.995" r="5.5" transform="rotate(-16.4061 457.621 356.995)" stroke="#000851"/>
<path d="M454.788 357.995L457.504 359.476" stroke="#000851" stroke-linecap="round" stroke-linejoin="round"/>
<path d="M457.52 359.415L460.425 354.084" stroke="#000851" stroke-linecap="round" stroke-linejoin="round"/>
<rect x="477.435" y="378.264" width="33.48" height="1.23769" transform="rotate(-16.4061 477.435 378.264)" fill="#000851"/>
<rect x="478.483" y="381.826" width="26.04" height="1.23769" transform="rotate(-16.4061 478.483 381.826)" fill="#000851"/>
<circle cx="465.529" cy="383.855" r="5.5" transform="rotate(-16.4061 465.529 383.855)" stroke="#000851"/>
<path d="M462.696 384.855L465.413 386.336" stroke="#000851" stroke-linecap="round" stroke-linejoin="round"/>
<path d="M465.428 386.275L468.334 380.944" stroke="#000851" stroke-linecap="round" stroke-linejoin="round"/>
<rect x="485.343" y="405.125" width="33.48" height="1.23769" transform="rotate(-16.4061 485.343 405.125)" fill="#000851"/>
<rect x="486.392" y="408.686" width="26.04" height="1.23769" transform="rotate(-16.4061 486.392 408.686)" fill="#000851"/>
<circle cx="473.437" cy="410.715" r="5.5" transform="rotate(-16.4061 473.437 410.715)" stroke="#000851"/>
<path d="M470.604 411.715L473.321 413.196" stroke="#000851" stroke-linecap="round" stroke-linejoin="round"/>
<path d="M473.336 413.135L476.242 407.804" stroke="#000851" stroke-linecap="round" stroke-linejoin="round"/>
<rect x="493.252" y="431.984" width="33.48" height="1.23769" transform="rotate(-16.4061 493.252 431.984)" fill="#000851"/>
<rect x="433.063" y="326.697" width="298" height="198" rx="3" transform="rotate(-16.4061 433.063 326.697)" stroke="#000851" stroke-width="2"/>
<rect x="0.33842" y="-0.620864" width="27" height="8" rx="3.5" transform="matrix(0.959284 -0.282444 -0.282444 -0.959284 72.0218 169.135)" stroke="#000851"/>
<rect x="287.401" y="106.368" width="189" height="8" rx="3.5" transform="rotate(163.594 287.401 106.368)" stroke="#000851"/>
<circle cx="295.864" cy="99.7059" r="4" transform="rotate(-16.4061 295.864 99.7059)" stroke="#000851"/>
<circle cx="309.295" cy="95.7518" r="4" transform="rotate(-16.4061 309.295 95.7518)" fill="#000851" stroke="#000851"/>
<circle cx="322.724" cy="91.7975" r="4" transform="rotate(-16.4061 322.724 91.7975)" stroke="#000851"/>
<circle cx="336.154" cy="87.8434" r="4" transform="rotate(-16.4061 336.154 87.8434)" stroke="#000851"/>
<rect x="97.0181" y="183.793" width="33.48" height="1.23769" transform="rotate(-16.4061 97.0181 183.793)" fill="#000851"/>
<rect x="98.0667" y="187.355" width="26.04" height="1.23769" transform="rotate(-16.4061 98.0667 187.355)" fill="#000851"/>
<circle cx="85.1122" cy="189.383" r="5.5" transform="rotate(-16.4061 85.1122 189.383)" stroke="#000851"/>
<rect x="104.927" y="210.653" width="33.48" height="1.23769" transform="rotate(-16.4061 104.927 210.653)" fill="#000851"/>
<rect x="105.975" y="214.215" width="26.04" height="1.23769" transform="rotate(-16.4061 105.975 214.215)" fill="#000851"/>
<circle cx="93.0207" cy="216.243" r="5.5" transform="rotate(-16.4061 93.0207 216.243)" stroke="#000851"/>
<rect x="112.835" y="237.513" width="33.48" height="1.23769" transform="rotate(-16.4061 112.835 237.513)" fill="#000851"/>
<rect x="113.884" y="241.074" width="26.04" height="1.23769" transform="rotate(-16.4061 113.884 241.074)" fill="#000851"/>
<circle cx="100.929" cy="243.103" r="5.5" transform="rotate(-16.4061 100.929 243.103)" stroke="#000851"/>
<rect x="120.743" y="264.373" width="33.48" height="1.23769" transform="rotate(-16.4061 120.743 264.373)" fill="#000851"/>
<rect x="121.792" y="267.935" width="26.04" height="1.23769" transform="rotate(-16.4061 121.792 267.935)" fill="#000851"/>
<circle cx="108.838" cy="269.963" r="5.5" transform="rotate(-16.4061 108.838 269.963)" stroke="#000851"/>
<rect x="128.652" y="291.232" width="33.48" height="1.23769" transform="rotate(-16.4061 128.652 291.232)" fill="#000851"/>
<rect x="129.7" y="294.794" width="26.04" height="1.23769" transform="rotate(-16.4061 129.7 294.794)" fill="#000851"/>
<circle cx="116.746" cy="296.823" r="5.5" transform="rotate(-16.4061 116.746 296.823)" stroke="#000851"/>
<rect x="136.56" y="318.093" width="33.48" height="1.23769" transform="rotate(-16.4061 136.56 318.093)" fill="#000851"/>
<rect x="137.609" y="321.654" width="26.04" height="1.23769" transform="rotate(-16.4061 137.609 321.654)" fill="#000851"/>
<circle cx="124.654" cy="323.683" r="5.5" transform="rotate(-16.4061 124.654 323.683)" stroke="#000851"/>
<rect x="191.275" y="229.533" width="143" height="64" rx="1.5" transform="rotate(-16.4061 191.275 229.533)" stroke="#000851"/>
<rect x="210.087" y="296.965" width="65" height="9" rx="4.5" transform="rotate(-16.4061 210.087 296.965)" stroke="#000851"/>
<rect x="288.748" y="273.805" width="65" height="9" rx="4.5" transform="rotate(-16.4061 288.748 273.805)" fill="#000851" stroke="#000851"/>
<rect x="174.16" y="176.716" width="148" height="1" transform="rotate(-16.4061 174.16 176.716)" fill="#000851"/>
<rect x="175.29" y="180.553" width="115" height="1" transform="rotate(-16.4061 175.29 180.553)" fill="#000851"/>
<rect x="176.42" y="184.39" width="131" height="1" transform="rotate(-16.4061 176.42 184.39)" fill="#000851"/>
<rect x="170.771" y="165.205" width="148" height="1" transform="rotate(-16.4061 170.771 165.205)" fill="#000851"/>
<rect x="169.076" y="159.449" width="118" height="2" transform="rotate(-16.4061 169.076 159.449)" fill="#000851"/>
<rect x="171.901" y="169.042" width="115" height="1" transform="rotate(-16.4061 171.901 169.042)" fill="#000851"/>
<rect x="173.031" y="172.879" width="131" height="1" transform="rotate(-16.4061 173.031 172.879)" fill="#000851"/>
<rect x="199.575" y="245.332" width="134" height="1" transform="rotate(-16.4061 199.575 245.332)" fill="#000851"/>
<rect x="200.705" y="249.169" width="104" height="1" transform="rotate(-16.4061 200.705 249.169)" fill="#000851"/>
<rect x="201.835" y="253.006" width="119" height="1" transform="rotate(-16.4061 201.835 253.006)" fill="#000851"/>
<rect x="196.186" y="233.82" width="134" height="1" transform="rotate(-16.4061 196.186 233.82)" fill="#000851"/>
<rect x="197.315" y="237.657" width="104" height="1" transform="rotate(-16.4061 197.315 237.657)" fill="#000851"/>
<rect x="198.445" y="241.495" width="119" height="1" transform="rotate(-16.4061 198.445 241.495)" fill="#000851"/>
<rect x="206.354" y="268.354" width="134" height="1" transform="rotate(-16.4061 206.354 268.354)" fill="#000851"/>
<rect x="207.484" y="272.192" width="104" height="1" transform="rotate(-16.4061 207.484 272.192)" fill="#000851"/>
<rect x="209.743" y="279.866" width="104" height="1" transform="rotate(-16.4061 209.743 279.866)" fill="#000851"/>
<rect x="210.873" y="283.703" width="104" height="1" transform="rotate(-16.4061 210.873 283.703)" fill="#000851"/>
<rect x="208.613" y="276.029" width="119" height="1" transform="rotate(-16.4061 208.613 276.029)" fill="#000851"/>
<rect x="202.964" y="256.843" width="134" height="1" transform="rotate(-16.4061 202.964 256.843)" fill="#000851"/>
<rect x="204.094" y="260.68" width="104" height="1" transform="rotate(-16.4061 204.094 260.68)" fill="#000851"/>
<rect x="205.224" y="264.517" width="119" height="1" transform="rotate(-16.4061 205.224 264.517)" fill="#000851"/>
<rect x="190.254" y="213.675" width="19" height="1" transform="rotate(-16.4061 190.254 213.675)" fill="#000851"/>
<rect x="194.262" y="216.665" width="13" height="1" transform="rotate(-16.4061 194.262 216.665)" fill="#000851"/>
<circle cx="195.216" cy="198.663" r="7.5" transform="rotate(-16.4061 195.216 198.663)" stroke="#000851"/>
<rect x="218.074" y="205.484" width="19" height="1" transform="rotate(-16.4061 218.074 205.484)" fill="#000851"/>
<rect x="222.081" y="208.474" width="13" height="1" transform="rotate(-16.4061 222.081 208.474)" fill="#000851"/>
<circle cx="223.035" cy="190.472" r="7.5" transform="rotate(-16.4061 223.035 190.472)" stroke="#000851"/>
<rect x="245.893" y="197.294" width="19" height="1" transform="rotate(-16.4061 245.893 197.294)" fill="#000851"/>
<rect x="249.9" y="200.283" width="13" height="1" transform="rotate(-16.4061 249.9 200.283)" fill="#000851"/>
<circle cx="251.814" cy="181.998" r="7.5" transform="rotate(-16.4061 251.814 181.998)" stroke="#000851"/>
<rect x="273.712" y="189.103" width="19" height="1" transform="rotate(-16.4061 273.712 189.103)" fill="#000851"/>
<rect x="277.72" y="192.093" width="13" height="1" transform="rotate(-16.4061 277.72 192.093)" fill="#000851"/>
<circle cx="278.674" cy="174.09" r="7.5" transform="rotate(-16.4061 278.674 174.09)" stroke="#000851"/>
<rect x="301.531" y="180.912" width="19" height="1" transform="rotate(-16.4061 301.531 180.912)" fill="#000851"/>
<rect x="305.539" y="183.902" width="13" height="1" transform="rotate(-16.4061 305.539 183.902)" fill="#000851"/>
<circle cx="307.452" cy="165.617" r="7.5" transform="rotate(-16.4061 307.452 165.617)" stroke="#000851"/>
<rect x="60.555" y="159.086" width="298" height="198" rx="3" transform="rotate(-16.4061 60.555 159.086)" stroke="#000851" stroke-width="2"/>
<rect x="0.33842" y="-0.620864" width="27" height="8" rx="3.5" transform="matrix(0.959284 -0.282444 -0.282444 -0.959284 946.661 293.148)" stroke="#000851"/>
<rect x="1039.25" y="266.533" width="63" height="8" rx="3.5" transform="rotate(163.594 1039.25 266.533)" stroke="#000851"/>
<circle cx="777.066" cy="370.857" r="4" transform="rotate(-16.701 777.066 370.857)" stroke="#000851"/>
<circle cx="781.302" cy="385.246" r="4" transform="rotate(-16.701 781.302 385.246)" stroke="#000851"/>
<circle cx="785.539" cy="399.636" r="4" transform="rotate(-16.701 785.539 399.636)" stroke="#000851"/>
<circle cx="772.829" cy="356.468" r="4" transform="rotate(-16.701 772.829 356.468)" fill="#000851" stroke="#000851"/>
<path d="M793.307 335.82C793.572 335.742 793.724 335.464 793.646 335.199C793.568 334.934 793.29 334.782 793.025 334.86L793.307 335.82ZM784.094 337.643C783.962 337.885 784.051 338.189 784.293 338.321L788.245 340.475C788.487 340.607 788.791 340.518 788.923 340.275C789.055 340.033 788.966 339.729 788.723 339.597L785.211 337.682L787.125 334.17C787.258 333.928 787.168 333.624 786.926 333.492C786.683 333.36 786.38 333.449 786.247 333.692L784.094 337.643ZM793.025 334.86L784.391 337.402L784.674 338.362L793.307 335.82L793.025 334.86Z" fill="#000851"/>
<path d="M801.941 333.278C801.676 333.356 801.398 333.204 801.32 332.939C801.242 332.674 801.394 332.396 801.659 332.318L801.941 333.278ZM810.673 329.817C810.915 329.949 811.005 330.253 810.873 330.495L808.719 334.447C808.587 334.689 808.283 334.778 808.041 334.646C807.798 334.514 807.709 334.21 807.841 333.968L809.755 330.456L806.243 328.541C806.001 328.409 805.911 328.106 806.043 327.863C806.176 327.621 806.479 327.531 806.722 327.663L810.673 329.817ZM801.659 332.318L810.292 329.776L810.575 330.736L801.941 333.278L801.659 332.318Z" fill="#000851"/>
<path d="M759.053 338.087C758.507 336.233 759.568 334.287 761.422 333.741L772.454 330.493L828.66 521.39L817.629 524.638C815.774 525.184 813.829 524.124 813.283 522.269L759.053 338.087Z" stroke="#000851"/>
<rect x="838.204" y="350.225" width="148" height="1" transform="rotate(-16.4061 838.204 350.225)" fill="#000851"/>
<rect x="839.334" y="354.062" width="115" height="1" transform="rotate(-16.4061 839.334 354.062)" fill="#000851"/>
<rect x="840.464" y="357.9" width="131" height="1" transform="rotate(-16.4061 840.464 357.9)" fill="#000851"/>
<circle cx="840.853" cy="337.979" r="5.5" transform="rotate(-16.4061 840.853 337.979)" stroke="#000851"/>
<rect x="860.726" y="366.528" width="34" height="1" transform="rotate(-16.4061 860.726 366.528)" fill="#000851"/>
<rect x="862.421" y="372.284" width="26" height="1" transform="rotate(-16.4061 862.421 372.284)" fill="#000851"/>
<rect x="864.115" y="378.04" width="34" height="1" transform="rotate(-16.4061 864.115 378.04)" fill="#000851"/>
<rect x="865.81" y="383.795" width="26" height="1" transform="rotate(-16.4061 865.81 383.795)" fill="#000851"/>
<rect x="867.505" y="389.551" width="34" height="1" transform="rotate(-16.4061 867.505 389.551)" fill="#000851"/>
<rect x="869.199" y="395.307" width="26" height="1" transform="rotate(-16.4061 869.199 395.307)" fill="#000851"/>
<rect x="870.894" y="401.062" width="34" height="1" transform="rotate(-16.4061 870.894 401.062)" fill="#000851"/>
<rect x="872.589" y="406.818" width="26" height="1" transform="rotate(-16.4061 872.589 406.818)" fill="#000851"/>
<rect x="874.283" y="412.574" width="34" height="1" transform="rotate(-16.4061 874.283 412.574)" fill="#000851"/>
<rect x="875.978" y="418.33" width="26" height="1" transform="rotate(-16.4061 875.978 418.33)" fill="#000851"/>
<rect x="877.673" y="424.085" width="34" height="1" transform="rotate(-16.4061 877.673 424.085)" fill="#000851"/>
<rect x="879.367" y="429.841" width="26" height="1" transform="rotate(-16.4061 879.367 429.841)" fill="#000851"/>
<rect x="844.418" y="371.33" width="6" height="1" transform="rotate(-16.4061 844.418 371.33)" fill="#000851"/>
<rect x="846.113" y="377.085" width="6" height="1" transform="rotate(-16.4061 846.113 377.085)" fill="#000851"/>
<rect x="847.808" y="382.841" width="6" height="1" transform="rotate(-16.4061 847.808 382.841)" fill="#000851"/>
<rect x="849.502" y="388.597" width="6" height="1" transform="rotate(-16.4061 849.502 388.597)" fill="#000851"/>
<rect x="851.197" y="394.353" width="6" height="1" transform="rotate(-16.4061 851.197 394.353)" fill="#000851"/>
<rect x="852.892" y="400.108" width="6" height="1" transform="rotate(-16.4061 852.892 400.108)" fill="#000851"/>
<rect x="854.586" y="405.864" width="6" height="1" transform="rotate(-16.4061 854.586 405.864)" fill="#000851"/>
<rect x="856.281" y="411.62" width="6" height="1" transform="rotate(-16.4061 856.281 411.62)" fill="#000851"/>
<rect x="857.976" y="417.375" width="6" height="1" transform="rotate(-16.4061 857.976 417.375)" fill="#000851"/>
<rect x="859.67" y="423.131" width="6" height="1" transform="rotate(-16.4061 859.67 423.131)" fill="#000851"/>
<rect x="952.817" y="339.414" width="35" height="1" transform="rotate(-16.4061 952.817 339.414)" fill="#000851"/>
<rect x="954.512" y="345.169" width="27" height="1" transform="rotate(-16.4061 954.512 345.169)" fill="#000851"/>
<rect x="956.207" y="350.925" width="35" height="1" transform="rotate(-16.4061 956.207 350.925)" fill="#000851"/>
<rect x="957.901" y="356.681" width="27" height="1" transform="rotate(-16.4061 957.901 356.681)" fill="#000851"/>
<rect x="959.596" y="362.436" width="35" height="1" transform="rotate(-16.4061 959.596 362.436)" fill="#000851"/>
<rect x="961.291" y="368.192" width="27" height="1" transform="rotate(-16.4061 961.291 368.192)" fill="#000851"/>
<rect x="962.985" y="373.948" width="35" height="1" transform="rotate(-16.4061 962.985 373.948)" fill="#000851"/>
<rect x="964.68" y="379.703" width="27" height="1" transform="rotate(-16.4061 964.68 379.703)" fill="#000851"/>
<rect x="966.375" y="385.459" width="35" height="1" transform="rotate(-16.4061 966.375 385.459)" fill="#000851"/>
<rect x="968.069" y="391.215" width="27" height="1" transform="rotate(-16.4061 968.069 391.215)" fill="#000851"/>
<rect x="969.764" y="396.97" width="35" height="1" transform="rotate(-16.4061 969.764 396.97)" fill="#000851"/>
<rect x="971.458" y="402.726" width="27" height="1" transform="rotate(-16.4061 971.458 402.726)" fill="#000851"/>
<rect x="973.153" y="408.482" width="35" height="1" transform="rotate(-16.4061 973.153 408.482)" fill="#000851"/>
<rect x="974.848" y="414.238" width="27" height="1" transform="rotate(-16.4061 974.848 414.238)" fill="#000851"/>
<rect width="35" height="1" transform="matrix(0.959284 -0.282444 -0.282444 -0.959284 930.044 428.472)" fill="#000851"/>
<rect width="27" height="1" transform="matrix(0.959284 -0.282444 -0.282444 -0.959284 928.349 422.716)" fill="#000851"/>
<rect width="35" height="1" transform="matrix(0.959284 -0.282444 -0.282444 -0.959284 926.655 416.96)" fill="#000851"/>
<rect width="27" height="1" transform="matrix(0.959284 -0.282444 -0.282444 -0.959284 924.96 411.205)" fill="#000851"/>
<rect width="35" height="1" transform="matrix(0.959284 -0.282444 -0.282444 -0.959284 923.265 405.449)" fill="#000851"/>
<rect width="27" height="1" transform="matrix(0.959284 -0.282444 -0.282444 -0.959284 921.571 399.693)" fill="#000851"/>
<rect width="35" height="1" transform="matrix(0.959284 -0.282444 -0.282444 -0.959284 919.876 393.938)" fill="#000851"/>
<rect width="27" height="1" transform="matrix(0.959284 -0.282444 -0.282444 -0.959284 918.181 388.182)" fill="#000851"/>
<rect width="35" height="1" transform="matrix(0.959284 -0.282444 -0.282444 -0.959284 916.487 382.426)" fill="#000851"/>
<rect width="27" height="1" transform="matrix(0.959284 -0.282444 -0.282444 -0.959284 914.792 376.67)" fill="#000851"/>
<rect width="35" height="1" transform="matrix(0.959284 -0.282444 -0.282444 -0.959284 913.097 370.915)" fill="#000851"/>
<rect width="27" height="1" transform="matrix(0.959284 -0.282444 -0.282444 -0.959284 911.403 365.159)" fill="#000851"/>
<rect width="35" height="1" transform="matrix(0.959284 -0.282444 -0.282444 -0.959284 909.708 359.403)" fill="#000851"/>
<rect width="27" height="1" transform="matrix(0.959284 -0.282444 -0.282444 -0.959284 908.013 353.648)" fill="#000851"/>
<rect x="758.686" y="335.068" width="298" height="198" rx="3" transform="rotate(-16.4061 758.686 335.068)" stroke="#000851" stroke-width="2"/>
<rect x="0.33842" y="-0.620864" width="27" height="8" rx="3.5" transform="matrix(0.959284 -0.282444 -0.282444 -0.959284 561.725 83.3276)" stroke="#000851"/>
<rect x="654.316" y="56.7131" width="63" height="8" rx="3.5" transform="rotate(163.594 654.316 56.7131)" stroke="#000851"/>
<circle cx="392.13" cy="161.037" r="4" transform="rotate(-16.701 392.13 161.037)" stroke="#000851"/>
<circle cx="396.366" cy="175.426" r="4" transform="rotate(-16.701 396.366 175.426)" stroke="#000851"/>
<circle cx="400.603" cy="189.816" r="4" transform="rotate(-16.701 400.603 189.816)" stroke="#000851"/>
<circle cx="387.893" cy="146.648" r="4" transform="rotate(-16.701 387.893 146.648)" fill="#000851" stroke="#000851"/>
<circle cx="433.084" cy="300.133" r="4" transform="rotate(-16.701 433.084 300.133)" stroke="#000851"/>
<circle cx="428.848" cy="285.744" r="4" transform="rotate(-16.701 428.848 285.744)" stroke="#000851"/>
<path d="M408.372 126C408.637 125.922 408.788 125.644 408.71 125.379C408.632 125.114 408.354 124.962 408.089 125.04L408.372 126ZM399.158 127.823C399.026 128.065 399.115 128.369 399.358 128.501L403.309 130.655C403.551 130.787 403.855 130.697 403.987 130.455C404.119 130.213 404.03 129.909 403.787 129.777L400.275 127.862L402.19 124.35C402.322 124.108 402.232 123.804 401.99 123.672C401.747 123.54 401.444 123.629 401.312 123.872L399.158 127.823ZM408.089 125.04L399.456 127.582L399.738 128.542L408.372 126L408.089 125.04Z" fill="#000851"/>
<path d="M417.005 123.458C416.741 123.536 416.463 123.384 416.385 123.119C416.307 122.854 416.458 122.576 416.723 122.498L417.005 123.458ZM425.737 119.997C425.98 120.129 426.069 120.433 425.937 120.675L423.783 124.626C423.651 124.869 423.347 124.958 423.105 124.826C422.862 124.694 422.773 124.39 422.905 124.148L424.819 120.636L421.307 118.721C421.065 118.589 420.975 118.286 421.108 118.043C421.24 117.801 421.543 117.711 421.786 117.843L425.737 119.997ZM416.723 122.498L425.357 119.956L425.639 120.916L417.005 123.458L416.723 122.498Z" fill="#000851"/>
<path d="M374.117 128.267C373.572 126.413 374.632 124.467 376.486 123.921L387.518 120.673L443.725 311.57L432.693 314.818C430.839 315.364 428.893 314.304 428.347 312.449L374.117 128.267Z" stroke="#000851"/>
<rect x="460.478" y="285.268" width="54" height="1" transform="rotate(-16.4061 460.478 285.268)" fill="#000851"/>
<rect x="461.607" y="289.105" width="41" height="1" transform="rotate(-16.4061 461.607 289.105)" fill="#000851"/>
<rect x="448.676" y="261.117" width="76" height="37" rx="1.5" transform="rotate(-16.4061 448.676 261.117)" stroke="#000851"/>
<path d="M449.1 262.556C448.866 261.762 449.32 260.928 450.115 260.694L520.143 240.075C520.937 239.841 521.771 240.296 522.005 241.091L527.513 259.797L454.607 281.262L449.1 262.556Z" stroke="#000851"/>
<rect x="434.493" y="197.013" width="54" height="1" transform="rotate(-16.4061 434.493 197.013)" fill="#000851"/>
<rect x="435.623" y="200.851" width="41" height="1" transform="rotate(-16.4061 435.623 200.851)" fill="#000851"/>
<rect x="422.691" y="172.863" width="76" height="37" rx="1.5" transform="rotate(-16.4061 422.691 172.863)" stroke="#000851"/>
<path d="M423.115 174.302C422.881 173.508 423.335 172.674 424.13 172.44L494.158 151.821C494.953 151.587 495.786 152.042 496.02 152.836L501.528 171.543L428.623 193.008L423.115 174.302Z" stroke="#000851"/>
<rect x="447.485" y="241.14" width="54" height="1" transform="rotate(-16.4061 447.485 241.14)" fill="#000851"/>
<rect x="448.615" y="244.978" width="41" height="1" transform="rotate(-16.4061 448.615 244.978)" fill="#000851"/>
<rect x="435.684" y="216.991" width="76" height="37" rx="1.5" transform="rotate(-16.4061 435.684 216.991)" stroke="#000851"/>
<path d="M436.107 218.429C435.873 217.635 436.328 216.801 437.123 216.567L507.15 195.948C507.945 195.714 508.779 196.169 509.013 196.964L514.52 215.67L441.615 237.135L436.107 218.429Z" fill="#000851" stroke="#000851"/>
<rect x="542.017" y="261.26" width="54" height="1" transform="rotate(-16.4061 542.017 261.26)" fill="#000851"/>
<rect x="543.146" y="265.097" width="41" height="1" transform="rotate(-16.4061 543.146 265.097)" fill="#000851"/>
<rect x="530.215" y="237.11" width="76" height="37" rx="1.5" transform="rotate(-16.4061 530.215 237.11)" stroke="#000851"/>
<path d="M530.639 238.549C530.405 237.754 530.859 236.92 531.654 236.686L601.682 216.068C602.476 215.834 603.31 216.288 603.544 217.083L609.052 235.789L536.146 257.255L530.639 238.549Z" fill="#000851" stroke="#000851"/>
<rect x="516.032" y="173.006" width="54" height="1" transform="rotate(-16.4061 516.032 173.006)" fill="#000851"/>
<rect x="517.162" y="176.843" width="41" height="1" transform="rotate(-16.4061 517.162 176.843)" fill="#000851"/>
<rect x="504.23" y="148.856" width="76" height="37" rx="1.5" transform="rotate(-16.4061 504.23 148.856)" stroke="#000851"/>
<path d="M504.654 150.294C504.42 149.5 504.874 148.666 505.669 148.432L575.697 127.813C576.492 127.579 577.325 128.034 577.559 128.829L583.067 147.535L510.162 169L504.654 150.294Z" stroke="#000851"/>
<rect x="529.024" y="217.133" width="54" height="1" transform="rotate(-16.4061 529.024 217.133)" fill="#000851"/>
<rect x="530.154" y="220.97" width="41" height="1" transform="rotate(-16.4061 530.154 220.97)" fill="#000851"/>
<rect x="517.223" y="192.983" width="76" height="37" rx="1.5" transform="rotate(-16.4061 517.223 192.983)" stroke="#000851"/>
<path d="M517.646 194.422C517.412 193.627 517.867 192.793 518.662 192.559L588.689 171.941C589.484 171.707 590.318 172.161 590.552 172.956L596.06 191.662L523.154 213.128L517.646 194.422Z" stroke="#000851"/>
<rect x="623.556" y="237.252" width="54" height="1" transform="rotate(-16.4061 623.556 237.252)" fill="#000851"/>
<rect x="624.686" y="241.089" width="41" height="1" transform="rotate(-16.4061 624.686 241.089)" fill="#000851"/>
<rect x="611.754" y="213.102" width="76" height="37" rx="1.5" transform="rotate(-16.4061 611.754 213.102)" stroke="#000851"/>
<path d="M612.178 214.541C611.944 213.746 612.399 212.912 613.193 212.678L683.221 192.06C684.016 191.826 684.85 192.28 685.084 193.075L690.591 211.781L617.686 233.247L612.178 214.541Z" stroke="#000851"/>
<rect x="597.571" y="148.998" width="54" height="1" transform="rotate(-16.4061 597.571 148.998)" fill="#000851"/>
<rect x="598.701" y="152.835" width="41" height="1" transform="rotate(-16.4061 598.701 152.835)" fill="#000851"/>
<rect x="585.77" y="124.848" width="76" height="37" rx="1.5" transform="rotate(-16.4061 585.77 124.848)" stroke="#000851"/>
<path d="M586.193 126.287C585.959 125.492 586.414 124.658 587.208 124.424L657.236 103.806C658.031 103.572 658.865 104.026 659.099 104.821L664.606 123.527L591.701 144.993L586.193 126.287Z" fill="#000851" stroke="#000851"/>
<rect x="610.563" y="193.125" width="54" height="1" transform="rotate(-16.4061 610.563 193.125)" fill="#000851"/>
<rect x="611.693" y="196.962" width="41" height="1" transform="rotate(-16.4061 611.693 196.962)" fill="#000851"/>
<rect x="598.762" y="168.975" width="76" height="37" rx="1.5" transform="rotate(-16.4061 598.762 168.975)" stroke="#000851"/>
<path d="M599.186 170.414C598.952 169.619 599.406 168.785 600.201 168.551L670.229 147.933C671.023 147.699 671.857 148.153 672.091 148.948L677.599 167.654L604.693 189.12L599.186 170.414Z" stroke="#000851"/>
<path d="M504.138 111.577C504.639 113.278 503.663 115.066 501.956 115.569C500.249 116.071 498.461 115.097 497.96 113.396C497.459 111.695 498.434 109.907 500.141 109.404C501.848 108.902 503.637 109.876 504.138 111.577Z" stroke="#000851"/>
<path d="M519.839 106.954C520.34 108.655 519.364 110.443 517.658 110.946C515.951 111.448 514.162 110.474 513.661 108.773C513.16 107.072 514.136 105.284 515.843 104.781C517.549 104.279 519.338 105.253 519.839 106.954Z" fill="#000851" stroke="#000851"/>
<path d="M535.54 102.331C536.041 104.032 535.066 105.82 533.359 106.323C531.652 106.825 529.864 105.851 529.363 104.15C528.862 102.448 529.837 100.661 531.544 100.158C533.251 99.6557 535.039 100.63 535.54 102.331Z" stroke="#000851"/>
<path d="M551.242 97.7079C551.743 99.4093 550.767 101.197 549.061 101.7C547.354 102.202 545.565 101.228 545.064 99.5269C544.563 97.8254 545.539 96.0377 547.246 95.5352C548.952 95.0326 550.741 96.0065 551.242 97.7079Z" stroke="#000851"/>
<path d="M566.943 93.0849C567.444 94.7863 566.469 96.574 564.762 97.0766C563.055 97.5791 561.267 96.6052 560.766 94.9038C560.265 93.2024 561.24 91.4146 562.947 90.9121C564.654 90.4096 566.443 91.3834 566.943 93.0849Z" fill="#000851" stroke="#000851"/>
<rect x="497.508" y="124.253" width="77" height="1" transform="rotate(-16.4061 497.508 124.253)" fill="#000851"/>
<rect x="503.434" y="126.677" width="66" height="1" transform="rotate(-16.4061 503.434 126.677)" fill="#000851"/>
<rect x="501.968" y="132.321" width="73" height="1" transform="rotate(-16.4061 501.968 132.321)" fill="#000851"/>
<rect x="516.81" y="133.164" width="43" height="1" transform="rotate(-16.4061 516.81 133.164)" fill="#000851"/>
<rect x="373.75" y="125.248" width="298" height="198" rx="3" transform="rotate(-16.4061 373.75 125.248)" stroke="#000851" stroke-width="2"/>
<rect x="143.578" y="387.955" width="43" height="2" rx="1" transform="rotate(-16.4061 143.578 387.955)" fill="#000851"/>
<rect x="144.99" y="392.751" width="34" height="2" rx="1" transform="rotate(-16.4061 144.99 392.751)" fill="#000851"/>
<rect x="135.225" y="382.596" width="59" height="167" rx="1.5" transform="rotate(-16.4061 135.225 382.596)" stroke="#000851"/>
<rect x="149.227" y="407.141" width="43" height="2" rx="1" transform="rotate(-16.4061 149.227 407.141)" fill="#000851"/>
<rect x="150.639" y="411.937" width="34" height="2" rx="1" transform="rotate(-16.4061 150.639 411.937)" fill="#000851"/>
<rect x="154.876" y="426.326" width="43" height="2" rx="1" transform="rotate(-16.4061 154.876 426.326)" fill="#000851"/>
<rect x="156.288" y="431.123" width="34" height="2" rx="1" transform="rotate(-16.4061 156.288 431.123)" fill="#000851"/>
<path d="M139.707 367.725C139.972 367.647 140.123 367.369 140.045 367.104C139.967 366.839 139.689 366.687 139.424 366.765L139.707 367.725ZM130.493 369.548C130.361 369.79 130.45 370.094 130.693 370.226L134.644 372.38C134.886 372.512 135.19 372.423 135.322 372.18C135.454 371.938 135.365 371.634 135.123 371.502L131.61 369.587L133.525 366.075C133.657 365.833 133.568 365.529 133.325 365.397C133.083 365.265 132.779 365.354 132.647 365.597L130.493 369.548ZM139.424 366.765L130.791 369.307L131.073 370.267L139.707 367.725L139.424 366.765Z" fill="#000851"/>
<circle cx="393.155" cy="292.059" r="6" transform="rotate(-16.4061 393.155 292.059)" stroke="#000851"/>
<rect x="254.978" y="387.471" width="33" height="1" transform="rotate(-16.4061 254.978 387.471)" fill="#000851"/>
<rect x="293.69" y="384.413" width="9" height="1" rx="0.5" transform="rotate(-16.4061 293.69 384.413)" fill="#000851"/>
<rect x="298.939" y="388.079" width="9" height="1" rx="0.5" transform="rotate(-106.406 298.939 388.079)" fill="#000851"/>
<rect x="256.107" y="391.308" width="25" height="1" transform="rotate(-16.4061 256.107 391.308)" fill="#000851"/>
<rect x="257.237" y="395.146" width="33" height="1" transform="rotate(-16.4061 257.237 395.146)" fill="#000851"/>
<rect x="258.367" y="398.983" width="25" height="1" transform="rotate(-16.4061 258.367 398.983)" fill="#000851"/>
<rect x="229.245" y="390.357" width="76" height="25" rx="1.5" transform="rotate(-16.4061 229.245 390.357)" stroke="#000851"/>
<rect x="234.212" y="393.064" width="17" height="17" rx="1.5" transform="rotate(-16.4061 234.212 393.064)" fill="#000851" stroke="#000851"/>
<rect x="264.581" y="420.087" width="33" height="1" transform="rotate(-16.4061 264.581 420.087)" fill="#000851"/>
<rect x="303.293" y="417.028" width="9" height="1" rx="0.5" transform="rotate(-16.4061 303.293 417.028)" fill="#000851"/>
<rect x="308.542" y="420.695" width="9" height="1" rx="0.5" transform="rotate(-106.406 308.542 420.695)" fill="#000851"/>
<rect x="265.71" y="423.924" width="25" height="1" transform="rotate(-16.4061 265.71 423.924)" fill="#000851"/>
<rect x="266.84" y="427.761" width="33" height="1" transform="rotate(-16.4061 266.84 427.761)" fill="#000851"/>
<rect x="238.848" y="422.972" width="76" height="25" rx="1.5" transform="rotate(-16.4061 238.848 422.972)" stroke="#000851"/>
<rect x="243.815" y="425.68" width="17" height="17" rx="1.5" transform="rotate(-16.4061 243.815 425.68)" fill="#000851" stroke="#000851"/>
<rect x="345.15" y="360.921" width="33" height="1" transform="rotate(-16.4061 345.15 360.921)" fill="#000851"/>
<rect x="383.863" y="357.863" width="9" height="1" rx="0.5" transform="rotate(-16.4061 383.863 357.863)" fill="#000851"/>
<rect x="389.112" y="361.53" width="9" height="1" rx="0.5" transform="rotate(-106.406 389.112 361.53)" fill="#000851"/>
<rect x="346.28" y="364.759" width="25" height="1" transform="rotate(-16.4061 346.28 364.759)" fill="#000851"/>
<rect x="347.41" y="368.596" width="33" height="1" transform="rotate(-16.4061 347.41 368.596)" fill="#000851"/>
<rect x="348.54" y="372.433" width="25" height="1" transform="rotate(-16.4061 348.54 372.433)" fill="#000851"/>
<rect x="319.417" y="363.807" width="76" height="25" rx="1.5" transform="rotate(-16.4061 319.417 363.807)" stroke="#000851"/>
<rect x="324.384" y="366.514" width="17" height="17" rx="1.5" transform="rotate(-16.4061 324.384 366.514)" stroke="#000851"/>
<rect x="354.753" y="393.537" width="33" height="1" transform="rotate(-16.4061 354.753 393.537)" fill="#000851"/>
<rect x="393.466" y="390.479" width="9" height="1" rx="0.5" transform="rotate(-16.4061 393.466 390.479)" fill="#000851"/>
<rect x="398.715" y="394.145" width="9" height="1" rx="0.5" transform="rotate(-106.406 398.715 394.145)" fill="#000851"/>
<rect x="355.883" y="397.374" width="25" height="1" transform="rotate(-16.4061 355.883 397.374)" fill="#000851"/>
<rect x="357.013" y="401.211" width="33" height="1" transform="rotate(-16.4061 357.013 401.211)" fill="#000851"/>
<rect x="358.143" y="405.049" width="25" height="1" transform="rotate(-16.4061 358.143 405.049)" fill="#000851"/>
<rect x="329.021" y="396.423" width="76" height="25" rx="1.5" transform="rotate(-16.4061 329.021 396.423)" stroke="#000851"/>
<rect x="333.987" y="399.13" width="17" height="17" rx="1.5" transform="rotate(-16.4061 333.987 399.13)" stroke="#000851"/>
<rect x="364.356" y="426.153" width="33" height="1" transform="rotate(-16.4061 364.356 426.153)" fill="#000851"/>
<rect x="403.069" y="423.094" width="9" height="1" rx="0.5" transform="rotate(-16.4061 403.069 423.094)" fill="#000851"/>
<rect x="408.318" y="426.761" width="9" height="1" rx="0.5" transform="rotate(-106.406 408.318 426.761)" fill="#000851"/>
<rect x="365.486" y="429.99" width="25" height="1" transform="rotate(-16.4061 365.486 429.99)" fill="#000851"/>
<rect x="338.624" y="429.038" width="76" height="25" rx="1.5" transform="rotate(-16.4061 338.624 429.038)" stroke="#000851"/>
<rect x="245.374" y="354.855" width="33" height="1" transform="rotate(-16.4061 245.374 354.855)" fill="#000851"/>
<rect x="284.087" y="351.797" width="9" height="1" rx="0.5" transform="rotate(-16.4061 284.087 351.797)" fill="#000851"/>
<rect x="289.336" y="355.464" width="9" height="1" rx="0.5" transform="rotate(-106.406 289.336 355.464)" fill="#000851"/>
<rect x="246.504" y="358.693" width="25" height="1" transform="rotate(-16.4061 246.504 358.693)" fill="#000851"/>
<rect x="247.634" y="362.53" width="33" height="1" transform="rotate(-16.4061 247.634 362.53)" fill="#000851"/>
<rect x="248.764" y="366.367" width="25" height="1" transform="rotate(-16.4061 248.764 366.367)" fill="#000851"/>
<rect x="219.642" y="357.741" width="76" height="25" rx="1.5" transform="rotate(-16.4061 219.642 357.741)" stroke="#000851"/>
<rect x="224.609" y="360.449" width="17" height="17" rx="1.5" transform="rotate(-16.4061 224.609 360.449)" stroke="#000851"/>
<rect x="335.547" y="328.306" width="33" height="1" transform="rotate(-16.4061 335.547 328.306)" fill="#000851"/>
<rect x="374.259" y="325.247" width="9" height="1" rx="0.5" transform="rotate(-16.4061 374.259 325.247)" fill="#000851"/>
<rect x="379.509" y="328.914" width="9" height="1" rx="0.5" transform="rotate(-106.406 379.509 328.914)" fill="#000851"/>
<rect x="336.677" y="332.143" width="25" height="1" transform="rotate(-16.4061 336.677 332.143)" fill="#000851"/>
<rect x="337.807" y="335.98" width="33" height="1" transform="rotate(-16.4061 337.807 335.98)" fill="#000851"/>
<rect x="338.936" y="339.817" width="25" height="1" transform="rotate(-16.4061 338.936 339.817)" fill="#000851"/>
<rect x="309.814" y="331.191" width="76" height="25" rx="1.5" transform="rotate(-16.4061 309.814 331.191)" stroke="#000851"/>
<rect x="314.781" y="333.899" width="17" height="17" rx="1.5" transform="rotate(-16.4061 314.781 333.899)" fill="#000851" stroke="#000851"/>
<rect x="119.868" y="360.535" width="298" height="198" rx="3" transform="rotate(-16.4061 119.868 360.535)" stroke="#000851" stroke-width="2"/>
<circle cx="23.8583" cy="7.81435" r="4" transform="rotate(-16.701 23.8583 7.81435)" stroke="#000851"/>
<circle cx="28.0948" cy="22.2038" r="4" transform="rotate(-16.701 28.0948 22.2038)" stroke="#000851"/>
<circle cx="60.576" cy="132.521" r="4" transform="rotate(-16.701 60.576 132.521)" stroke="#000851"/>
<circle cx="56.3395" cy="118.132" r="4" transform="rotate(-16.701 56.3395 118.132)" stroke="#000851"/>
<path d="M1.60942 -39.3449C1.06345 -41.1992 2.12406 -43.1449 3.97836 -43.6909L15.0101 -46.939L71.2165 143.958L60.1848 147.207C58.3305 147.753 56.3847 146.692 55.8387 144.838L1.60942 -39.3449Z" stroke="#000851"/>
<rect x="106.672" y="0.607666" width="34" height="1" transform="rotate(-16.4061 106.672 0.607666)" fill="#000851"/>
<rect x="108.366" y="6.36328" width="26" height="1" transform="rotate(-16.4061 108.366 6.36328)" fill="#000851"/>
<rect x="110.061" y="12.1191" width="34" height="1" transform="rotate(-16.4061 110.061 12.1191)" fill="#000851"/>
<rect x="111.756" y="17.8748" width="26" height="1" transform="rotate(-16.4061 111.756 17.8748)" fill="#000851"/>
<rect x="113.45" y="23.6304" width="34" height="1" transform="rotate(-16.4061 113.45 23.6304)" fill="#000851"/>
<rect x="115.145" y="29.3862" width="26" height="1" transform="rotate(-16.4061 115.145 29.3862)" fill="#000851"/>
<rect x="116.84" y="35.1418" width="34" height="1" transform="rotate(-16.4061 116.84 35.1418)" fill="#000851"/>
<rect x="118.534" y="40.8977" width="26" height="1" transform="rotate(-16.4061 118.534 40.8977)" fill="#000851"/>
<rect x="120.229" y="46.6533" width="34" height="1" transform="rotate(-16.4061 120.229 46.6533)" fill="#000851"/>
<rect x="121.924" y="52.4089" width="26" height="1" transform="rotate(-16.4061 121.924 52.4089)" fill="#000851"/>
<rect x="123.618" y="58.1648" width="34" height="1" transform="rotate(-16.4061 123.618 58.1648)" fill="#000851"/>
<rect x="125.313" y="63.9204" width="26" height="1" transform="rotate(-16.4061 125.313 63.9204)" fill="#000851"/>
<rect x="127.008" y="69.676" width="34" height="1" transform="rotate(-16.4061 127.008 69.676)" fill="#000851"/>
<rect x="128.702" y="75.4319" width="26" height="1" transform="rotate(-16.4061 128.702 75.4319)" fill="#000851"/>
<rect x="130.397" y="81.1875" width="34" height="1" transform="rotate(-16.4061 130.397 81.1875)" fill="#000851"/>
<rect x="132.092" y="86.9431" width="26" height="1" transform="rotate(-16.4061 132.092 86.9431)" fill="#000851"/>
<rect x="133.786" y="92.699" width="34" height="1" transform="rotate(-16.4061 133.786 92.699)" fill="#000851"/>
<rect x="135.481" y="98.4546" width="26" height="1" transform="rotate(-16.4061 135.481 98.4546)" fill="#000851"/>
<rect x="88.6689" y="-0.346436" width="6" height="1" transform="rotate(-16.4061 88.6689 -0.346436)" fill="#000851"/>
<rect x="90.3638" y="5.40918" width="6" height="1" transform="rotate(-16.4061 90.3638 5.40918)" fill="#000851"/>
<rect x="92.0583" y="11.165" width="6" height="1" transform="rotate(-16.4061 92.0583 11.165)" fill="#000851"/>
<rect x="93.7529" y="16.9207" width="6" height="1" transform="rotate(-16.4061 93.7529 16.9207)" fill="#000851"/>
<rect x="95.4478" y="22.6763" width="6" height="1" transform="rotate(-16.4061 95.4478 22.6763)" fill="#000851"/>
<rect x="97.1423" y="28.4321" width="6" height="1" transform="rotate(-16.4061 97.1423 28.4321)" fill="#000851"/>
<rect x="98.8369" y="34.1877" width="6" height="1" transform="rotate(-16.4061 98.8369 34.1877)" fill="#000851"/>
<rect x="100.532" y="39.9434" width="6" height="1" transform="rotate(-16.4061 100.532 39.9434)" fill="#000851"/>
<rect x="102.226" y="45.6992" width="6" height="1" transform="rotate(-16.4061 102.226 45.6992)" fill="#000851"/>
<rect x="103.921" y="51.4548" width="6" height="1" transform="rotate(-16.4061 103.921 51.4548)" fill="#000851"/>
<rect x="105.616" y="57.2104" width="6" height="1" transform="rotate(-16.4061 105.616 57.2104)" fill="#000851"/>
<rect x="107.31" y="62.9663" width="6" height="1" transform="rotate(-16.4061 107.31 62.9663)" fill="#000851"/>
<rect x="109.005" y="68.7219" width="6" height="1" transform="rotate(-16.4061 109.005 68.7219)" fill="#000851"/>
<rect x="110.7" y="74.4775" width="6" height="1" transform="rotate(-16.4061 110.7 74.4775)" fill="#000851"/>
<rect x="112.394" y="80.2334" width="6" height="1" transform="rotate(-16.4061 112.394 80.2334)" fill="#000851"/>
<rect x="114.089" y="85.989" width="6" height="1" transform="rotate(-16.4061 114.089 85.989)" fill="#000851"/>
<rect x="115.784" y="91.7449" width="6" height="1" transform="rotate(-16.4061 115.784 91.7449)" fill="#000851"/>
<rect x="117.478" y="97.5005" width="6" height="1" transform="rotate(-16.4061 117.478 97.5005)" fill="#000851"/>
<rect x="119.173" y="103.256" width="6" height="1" transform="rotate(-16.4061 119.173 103.256)" fill="#000851"/>
<rect x="207.236" y="2.27148" width="27" height="1" transform="rotate(-16.4061 207.236 2.27148)" fill="#000851"/>
<rect x="208.931" y="8.02734" width="35" height="1" transform="rotate(-16.4061 208.931 8.02734)" fill="#000851"/>
<rect x="210.625" y="13.783" width="27" height="1" transform="rotate(-16.4061 210.625 13.783)" fill="#000851"/>
<rect x="212.32" y="19.5386" width="35" height="1" transform="rotate(-16.4061 212.32 19.5386)" fill="#000851"/>
<rect x="214.015" y="25.2944" width="27" height="1" transform="rotate(-16.4061 214.015 25.2944)" fill="#000851"/>
<rect x="215.709" y="31.05" width="35" height="1" transform="rotate(-16.4061 215.709 31.05)" fill="#000851"/>
<rect x="217.404" y="36.8057" width="27" height="1" transform="rotate(-16.4061 217.404 36.8057)" fill="#000851"/>
<rect x="219.099" y="42.5615" width="35" height="1" transform="rotate(-16.4061 219.099 42.5615)" fill="#000851"/>
<rect x="220.793" y="48.3171" width="27" height="1" transform="rotate(-16.4061 220.793 48.3171)" fill="#000851"/>
<rect x="222.488" y="54.0728" width="35" height="1" transform="rotate(-16.4061 222.488 54.0728)" fill="#000851"/>
<rect x="224.183" y="59.8286" width="27" height="1" transform="rotate(-16.4061 224.183 59.8286)" fill="#000851"/>
<rect x="225.877" y="65.5842" width="35" height="1" transform="rotate(-16.4061 225.877 65.5842)" fill="#000851"/>
<rect x="227.572" y="71.3398" width="27" height="1" transform="rotate(-16.4061 227.572 71.3398)" fill="#000851"/>
<rect width="35" height="1" transform="matrix(0.959284 -0.282444 -0.282444 -0.959284 182.768 85.5742)" fill="#000851"/>
<rect width="27" height="1" transform="matrix(0.959284 -0.282444 -0.282444 -0.959284 181.073 79.8184)" fill="#000851"/>
<rect width="35" height="1" transform="matrix(0.959284 -0.282444 -0.282444 -0.959284 179.379 74.0627)" fill="#000851"/>
<rect width="34" height="1" transform="matrix(0.959284 -0.282444 -0.282444 -0.959284 140.847 116.681)" fill="#000851"/>
<rect width="26" height="1" transform="matrix(0.959284 -0.282444 -0.282444 -0.959284 139.153 110.925)" fill="#000851"/>
<rect width="34" height="1" transform="matrix(0.959284 -0.282444 -0.282444 -0.959284 137.458 105.17)" fill="#000851"/>
<rect width="6" height="1" transform="matrix(0.959284 -0.282444 -0.282444 -0.959284 124.54 121.483)" fill="#000851"/>
<rect width="6" height="1" transform="matrix(0.959284 -0.282444 -0.282444 -0.959284 122.845 115.727)" fill="#000851"/>
<rect width="6" height="1" transform="matrix(0.959284 -0.282444 -0.282444 -0.959284 121.15 109.971)" fill="#000851"/>
<rect width="35" height="1" transform="matrix(0.959284 -0.282444 -0.282444 -0.959284 232.938 89.5664)" fill="#000851"/>
<rect width="27" height="1" transform="matrix(0.959284 -0.282444 -0.282444 -0.959284 231.244 83.8105)" fill="#000851"/>
<rect width="35" height="1" transform="matrix(0.959284 -0.282444 -0.282444 -0.959284 229.549 78.0549)" fill="#000851"/>
<rect x="184.18" y="90.3706" width="27" height="1" transform="rotate(-16.4061 184.18 90.3706)" fill="#000851"/>
<rect x="185.875" y="96.1262" width="35" height="1" transform="rotate(-16.4061 185.875 96.1262)" fill="#000851"/>
<rect x="187.57" y="101.882" width="27" height="1" transform="rotate(-16.4061 187.57 101.882)" fill="#000851"/>
<rect width="27" height="1" transform="matrix(0.959284 -0.282444 -0.282444 -0.959284 177.684 68.3071)" fill="#000851"/>
<rect width="35" height="1" transform="matrix(0.959284 -0.282444 -0.282444 -0.959284 175.99 62.5513)" fill="#000851"/>
<rect width="27" height="1" transform="matrix(0.959284 -0.282444 -0.282444 -0.959284 174.295 56.7957)" fill="#000851"/>
<rect width="35" height="1" transform="matrix(0.959284 -0.282444 -0.282444 -0.959284 172.6 51.0398)" fill="#000851"/>
<rect width="27" height="1" transform="matrix(0.959284 -0.282444 -0.282444 -0.959284 170.906 45.2842)" fill="#000851"/>
<rect width="35" height="1" transform="matrix(0.959284 -0.282444 -0.282444 -0.959284 169.211 39.5286)" fill="#000851"/>
<rect width="27" height="1" transform="matrix(0.959284 -0.282444 -0.282444 -0.959284 167.516 33.7727)" fill="#000851"/>
<rect width="35" height="1" transform="matrix(0.959284 -0.282444 -0.282444 -0.959284 165.822 28.0171)" fill="#000851"/>
<rect width="27" height="1" transform="matrix(0.959284 -0.282444 -0.282444 -0.959284 164.127 22.2615)" fill="#000851"/>
<rect width="35" height="1" transform="matrix(0.959284 -0.282444 -0.282444 -0.959284 162.432 16.5056)" fill="#000851"/>
<rect width="27" height="1" transform="matrix(0.959284 -0.282444 -0.282444 -0.959284 160.738 10.75)" fill="#000851"/>
<rect width="35" height="1" transform="matrix(0.959284 -0.282444 -0.282444 -0.959284 159.043 4.99438)" fill="#000851"/>
<rect x="1.24173" y="-42.3639" width="298" height="198" rx="3" transform="rotate(-16.4061 1.24173 -42.3639)" stroke="#000851" stroke-width="2"/>
</svg>
