<svg width="1046" height="424" viewBox="0 0 1046 424" fill="none" xmlns="http://www.w3.org/2000/svg">
<rect x="484.979" y="10.2261" width="47.52" height="1.76111" transform="rotate(-0.0647046 484.979 10.2261)" fill="#000851"/>
<rect x="484.986" y="15.5093" width="36.96" height="1.76108" transform="rotate(-0.0647046 484.986 15.5093)" fill="#000851"/>
<rect x="485.5" y="28.3363" width="46.52" height="46.5492" rx="7.5" transform="rotate(-0.0647046 485.5 28.3363)" stroke="#000851"/>
<rect x="541.82" y="28.2729" width="46.52" height="46.5492" rx="7.5" transform="rotate(-0.0647046 541.82 28.2729)" stroke="#000851"/>
<path d="M495.138 97.2121C495.141 99.8541 493.003 101.998 490.363 102.001C487.724 102.004 485.581 99.8649 485.578 97.2229C485.575 94.5809 487.713 92.4372 490.352 92.4342C492.992 92.4312 495.135 94.5701 495.138 97.2121Z" stroke="#000851"/>
<path d="M518.37 97.186C518.373 99.828 516.235 101.972 513.595 101.975C510.955 101.978 508.813 99.8388 508.81 97.1968C508.807 94.5547 510.945 92.4111 513.584 92.4081C516.224 92.4051 518.367 94.544 518.37 97.186Z" fill="#000851" stroke="#000851"/>
<path d="M541.602 97.1598C541.605 99.8019 539.467 101.946 536.827 101.949C534.188 101.951 532.045 99.8127 532.042 97.1706C532.039 94.5286 534.177 92.385 536.816 92.382C539.456 92.379 541.599 94.5178 541.602 97.1598Z" stroke="#000851"/>
<path d="M564.834 97.1335C564.837 99.7755 562.699 101.919 560.059 101.922C557.42 101.925 555.277 99.7863 555.274 97.1443C555.271 94.5023 557.409 92.3586 560.048 92.3556C562.688 92.3526 564.831 94.4915 564.834 97.1335Z" stroke="#000851"/>
<path d="M588.066 97.1074C588.069 99.7494 585.931 101.893 583.291 101.896C580.651 101.899 578.509 99.7602 578.506 97.1182C578.503 94.4761 580.641 92.3325 583.28 92.3295C585.92 92.3265 588.063 94.4653 588.066 97.1074Z" stroke="#000851"/>
<rect x="470.29" y="-158.412" width="130" height="284" rx="7" transform="rotate(-0.0647046 470.29 -158.412)" stroke="#000851" stroke-width="2"/>
<rect x="645.833" y="5.43481" width="47.52" height="1.76108" transform="rotate(-0.0647046 645.833 5.43481)" fill="#000851"/>
<rect x="645.84" y="10.718" width="36.96" height="1.76108" transform="rotate(-0.0647046 645.84 10.718)" fill="#000851"/>
<rect x="674.307" y="82.2385" width="47.52" height="1.76109" transform="rotate(-0.0647046 674.307 82.2385)" fill="#000851"/>
<rect x="674.313" y="87.5217" width="36.96" height="1.76109" transform="rotate(-0.0647046 674.313 87.5217)" fill="#000851"/>
<path d="M656.156 237.886C656.159 240.528 654.021 242.672 651.381 242.675C648.742 242.678 646.599 240.539 646.596 237.897C646.593 235.255 648.731 233.112 651.371 233.109C654.01 233.106 656.153 235.244 656.156 237.886Z" fill="#000851" stroke="#000851"/>
<path d="M669.553 85.0897C669.561 92.6731 663.436 98.8255 655.875 98.834C648.313 98.8425 642.174 92.704 642.165 85.1206C642.157 77.5372 648.282 71.3848 655.844 71.3763C663.405 71.3678 669.544 77.5063 669.553 85.0897Z" stroke="#000851"/>
<path d="M679.388 237.86C679.391 240.502 677.253 242.646 674.613 242.649C671.974 242.652 669.831 240.513 669.828 237.871C669.825 235.229 671.963 233.085 674.603 233.082C677.242 233.079 679.385 235.218 679.388 237.86Z" stroke="#000851"/>
<path d="M702.62 237.834C702.623 240.476 700.485 242.62 697.845 242.623C695.206 242.626 693.063 240.487 693.06 237.845C693.057 235.203 695.195 233.059 697.835 233.056C700.474 233.053 702.617 235.192 702.62 237.834Z" stroke="#000851"/>
<path d="M725.852 237.808C725.855 240.45 723.717 242.593 721.077 242.596C718.438 242.599 716.295 240.461 716.292 237.819C716.289 235.177 718.427 233.033 721.067 233.03C723.706 233.027 725.849 235.166 725.852 237.808Z" stroke="#000851"/>
<path d="M749.084 237.781C749.087 240.423 746.949 242.567 744.309 242.57C741.67 242.573 739.527 240.434 739.524 237.792C739.521 235.15 741.659 233.007 744.299 233.004C746.938 233.001 749.081 235.139 749.084 237.781Z" stroke="#000851"/>
<path d="M750.456 84.9984C750.461 89.4384 746.875 93.0397 742.449 93.0447C738.023 93.0497 734.428 89.4565 734.423 85.0165C734.418 80.5764 738.004 76.9751 742.431 76.9701C746.857 76.9651 750.451 80.5583 750.456 84.9984Z" stroke="#000851"/>
<path d="M738.182 85.2392L741.29 88.3484" stroke="#000851" stroke-linecap="round" stroke-linejoin="round"/>
<path d="M741.336 88.2712L747.422 82.1561" stroke="#000851" stroke-linecap="round" stroke-linejoin="round"/>
<rect x="674.352" y="122.079" width="47.52" height="1.76108" transform="rotate(-0.0647046 674.352 122.079)" fill="#000851"/>
<rect x="674.358" y="127.363" width="36.96" height="1.76111" transform="rotate(-0.0647046 674.358 127.363)" fill="#000851"/>
<path d="M669.597 124.931C669.606 132.514 663.481 138.666 655.919 138.675C648.358 138.683 642.219 132.545 642.21 124.961C642.202 117.378 648.327 111.226 655.888 111.217C663.45 111.209 669.589 117.347 669.597 124.931Z" stroke="#000851"/>
<path d="M750.501 124.839C750.506 129.279 746.92 132.881 742.494 132.886C738.068 132.891 734.473 129.297 734.468 124.857C734.463 120.417 738.049 116.816 742.475 116.811C746.901 116.806 750.496 120.399 750.501 124.839Z" stroke="#000851"/>
<path d="M738.227 125.08L741.335 128.189" stroke="#000851" stroke-linecap="round" stroke-linejoin="round"/>
<path d="M741.381 128.112L747.467 121.997" stroke="#000851" stroke-linecap="round" stroke-linejoin="round"/>
<rect x="674.397" y="161.92" width="47.52" height="1.76108" transform="rotate(-0.0647046 674.397 161.92)" fill="#000851"/>
<rect x="674.403" y="167.203" width="36.96" height="1.76108" transform="rotate(-0.0647046 674.403 167.203)" fill="#000851"/>
<path d="M669.643 164.771C669.651 172.355 663.526 178.507 655.965 178.516C648.403 178.524 642.264 172.386 642.256 164.802C642.247 157.219 648.372 151.066 655.934 151.058C663.495 151.049 669.634 157.188 669.643 164.771Z" stroke="#000851"/>
<path d="M750.546 164.68C750.551 169.12 746.965 172.721 742.539 172.726C738.113 172.731 734.519 169.138 734.514 164.698C734.509 160.258 738.095 156.657 742.521 156.652C746.947 156.647 750.541 160.24 750.546 164.68Z" stroke="#000851"/>
<path d="M738.272 164.921L741.38 168.03" stroke="#000851" stroke-linecap="round" stroke-linejoin="round"/>
<path d="M741.426 167.953L747.512 161.837" stroke="#000851" stroke-linecap="round" stroke-linejoin="round"/>
<rect x="674.442" y="201.761" width="47.52" height="1.76109" transform="rotate(-0.0647046 674.442 201.761)" fill="#000851"/>
<rect x="674.448" y="207.044" width="36.96" height="1.76108" transform="rotate(-0.0647046 674.448 207.044)" fill="#000851"/>
<path d="M669.688 204.612C669.696 212.195 663.571 218.348 656.01 218.356C648.448 218.365 642.309 212.226 642.3 204.643C642.292 197.059 648.417 190.907 655.979 190.899C663.54 190.89 669.679 197.029 669.688 204.612Z" stroke="#000851"/>
<path d="M750.591 204.521C750.596 208.961 747.01 212.562 742.584 212.567C738.158 212.572 734.563 208.979 734.558 204.539C734.553 200.099 738.14 196.497 742.566 196.492C746.992 196.487 750.586 200.081 750.591 204.521Z" stroke="#000851"/>
<path d="M738.317 204.762L741.425 207.871" stroke="#000851" stroke-linecap="round" stroke-linejoin="round"/>
<path d="M741.471 207.793L747.557 201.678" stroke="#000851" stroke-linecap="round" stroke-linejoin="round"/>
<rect x="642.1" y="27.2824" width="27.3871" height="27.4577" rx="1.5" transform="rotate(-0.0647046 642.1 27.2824)" stroke="#000851"/>
<rect x="676.165" y="27.2438" width="27.3871" height="27.4577" rx="1.5" transform="rotate(-0.0647046 676.165 27.2438)" stroke="#000851"/>
<rect x="710.229" y="27.2055" width="27.3871" height="27.4577" rx="1.5" transform="rotate(-0.0647046 710.229 27.2055)" stroke="#000851"/>
<rect x="744.294" y="27.1669" width="17.4516" height="27.4577" rx="1.5" transform="rotate(-0.0647046 744.294 27.1669)" stroke="#000851"/>
<rect x="631.194" y="-17.7377" width="130" height="284" rx="7" transform="rotate(-0.0647046 631.194 -17.7377)" stroke="#000851" stroke-width="2"/>
<path d="M496.606 411.21C496.608 413.852 494.471 415.996 491.831 415.999C489.191 416.002 487.049 413.863 487.046 411.221C487.043 408.579 489.18 406.435 491.82 406.433C494.46 406.43 496.603 408.568 496.606 411.21Z" stroke="#000851"/>
<path d="M519.837 411.184C519.84 413.826 517.702 415.97 515.063 415.973C512.423 415.976 510.28 413.837 510.277 411.195C510.274 408.553 512.412 406.409 515.052 406.406C517.692 406.403 519.834 408.542 519.837 411.184Z" stroke="#000851"/>
<path d="M543.069 411.158C543.072 413.8 540.934 415.944 538.295 415.947C535.655 415.95 533.512 413.811 533.509 411.169C533.506 408.527 535.644 406.383 538.284 406.38C540.924 406.377 543.066 408.516 543.069 411.158Z" fill="#000851" stroke="#000851"/>
<path d="M566.302 411.132C566.305 413.774 564.167 415.917 561.527 415.92C558.887 415.923 556.745 413.785 556.742 411.143C556.739 408.501 558.877 406.357 561.516 406.354C564.156 406.351 566.299 408.49 566.302 411.132Z" stroke="#000851"/>
<path d="M589.533 411.105C589.536 413.747 587.399 415.891 584.759 415.894C582.119 415.897 579.976 413.758 579.973 411.116C579.971 408.474 582.108 406.331 584.748 406.328C587.388 406.325 589.531 408.463 589.533 411.105Z" stroke="#000851"/>
<path d="M494.808 186.364C495.084 186.363 495.307 186.139 495.307 185.863C495.307 185.587 495.083 185.363 494.807 185.364L494.808 186.364ZM481.679 185.525C481.484 185.72 481.484 186.037 481.68 186.232L484.865 189.41C485.061 189.605 485.377 189.605 485.572 189.409C485.768 189.214 485.767 188.897 485.572 188.702L482.74 185.877L485.565 183.046C485.76 182.85 485.76 182.533 485.564 182.338C485.369 182.143 485.052 182.144 484.857 182.339L481.679 185.525ZM494.807 185.364L482.032 185.378L482.034 186.378L494.808 186.364L494.807 185.364Z" fill="#000851"/>
<path d="M590.822 185.044C590.828 189.877 586.924 193.797 582.106 193.802C577.289 193.808 573.376 189.896 573.371 185.063C573.365 180.23 577.269 176.31 582.087 176.305C586.905 176.299 590.817 180.211 590.822 185.044Z" stroke="#000851"/>
<rect x="518.973" y="218.563" width="46.8387" height="1.42288" transform="rotate(-0.0647046 518.973 218.563)" fill="#000851"/>
<rect x="572.921" y="229.885" width="12.7742" height="1.42288" rx="0.711441" transform="rotate(-0.0647046 572.921 229.885)" fill="#000851"/>
<rect x="578.607" y="236.993" width="12.806" height="1.41936" rx="0.709679" transform="rotate(-90.0647 578.607 236.993)" fill="#000851"/>
<rect x="518.979" y="224.254" width="35.4839" height="1.42289" transform="rotate(-0.0647046 518.979 224.254)" fill="#000851"/>
<rect x="518.986" y="229.946" width="46.8387" height="1.42288" transform="rotate(-0.0647046 518.986 229.946)" fill="#000851"/>
<rect x="518.992" y="235.637" width="35.4839" height="1.42288" transform="rotate(-0.0647046 518.992 235.637)" fill="#000851"/>
<rect x="482.563" y="211.989" width="108.29" height="35.995" rx="1.5" transform="rotate(-0.0647046 482.563 211.989)" stroke="#000851"/>
<rect x="488.246" y="217.674" width="24.5484" height="24.6119" rx="1.5" transform="rotate(-0.0647046 488.246 217.674)" stroke="#000851"/>
<rect x="519.028" y="266.941" width="46.8387" height="1.42289" transform="rotate(-0.0647046 519.028 266.941)" fill="#000851"/>
<rect x="572.976" y="278.263" width="12.7742" height="1.42289" rx="0.711445" transform="rotate(-0.0647046 572.976 278.263)" fill="#000851"/>
<rect x="578.662" y="285.371" width="12.806" height="1.41936" rx="0.709679" transform="rotate(-90.0647 578.662 285.371)" fill="#000851"/>
<rect x="519.034" y="272.632" width="35.4839" height="1.42289" transform="rotate(-0.0647046 519.034 272.632)" fill="#000851"/>
<rect x="519.041" y="278.324" width="46.8387" height="1.42289" transform="rotate(-0.0647046 519.041 278.324)" fill="#000851"/>
<rect x="519.047" y="284.015" width="35.4839" height="1.42288" transform="rotate(-0.0647046 519.047 284.015)" fill="#000851"/>
<rect x="482.617" y="260.368" width="108.29" height="35.995" rx="1.5" transform="rotate(-0.0647046 482.617 260.368)" stroke="#000851"/>
<rect x="488.301" y="266.053" width="24.5484" height="24.6119" rx="1.5" transform="rotate(-0.0647046 488.301 266.053)" fill="#000851" stroke="#000851"/>
<rect x="519.083" y="315.319" width="46.8387" height="1.42288" transform="rotate(-0.0647046 519.083 315.319)" fill="#000851"/>
<rect x="573.031" y="326.641" width="12.7742" height="1.42288" rx="0.711441" transform="rotate(-0.0647046 573.031 326.641)" fill="#000851"/>
<rect x="578.716" y="333.749" width="12.806" height="1.41936" rx="0.709679" transform="rotate(-90.0647 578.716 333.749)" fill="#000851"/>
<rect x="519.089" y="321.01" width="35.4839" height="1.42288" transform="rotate(-0.0647046 519.089 321.01)" fill="#000851"/>
<rect x="519.095" y="326.702" width="46.8387" height="1.42288" transform="rotate(-0.0647046 519.095 326.702)" fill="#000851"/>
<rect x="519.102" y="332.394" width="35.4839" height="1.42288" transform="rotate(-0.0647046 519.102 332.394)" fill="#000851"/>
<rect x="482.672" y="308.746" width="108.29" height="35.995" rx="1.5" transform="rotate(-0.0647046 482.672 308.746)" stroke="#000851"/>
<rect x="488.356" y="314.431" width="24.5484" height="24.6119" rx="1.5" transform="rotate(-0.0647046 488.356 314.431)" stroke="#000851"/>
<rect x="519.137" y="363.697" width="46.8387" height="1.4229" transform="rotate(-0.0647046 519.137 363.697)" fill="#000851"/>
<rect x="573.085" y="375.019" width="12.7742" height="1.4229" rx="0.711449" transform="rotate(-0.0647046 573.085 375.019)" fill="#000851"/>
<rect x="578.771" y="382.127" width="12.806" height="1.41936" rx="0.709679" transform="rotate(-90.0647 578.771 382.127)" fill="#000851"/>
<rect x="519.144" y="369.388" width="35.4839" height="1.4229" transform="rotate(-0.0647046 519.144 369.388)" fill="#000851"/>
<rect x="519.15" y="375.08" width="46.8387" height="1.4229" transform="rotate(-0.0647046 519.15 375.08)" fill="#000851"/>
<rect x="519.156" y="380.771" width="35.4839" height="1.4229" transform="rotate(-0.0647046 519.156 380.771)" fill="#000851"/>
<rect x="482.726" y="357.124" width="108.29" height="35.995" rx="1.5" transform="rotate(-0.0647046 482.726 357.124)" stroke="#000851"/>
<rect x="488.41" y="362.809" width="24.5484" height="24.6119" rx="1.5" transform="rotate(-0.0647046 488.41 362.809)" fill="#000851" stroke="#000851"/>
<rect x="471.644" y="155.586" width="130" height="284" rx="7" transform="rotate(-0.0647046 471.644 155.586)" stroke="#000851" stroke-width="2"/>
<rect x="969.815" y="131.427" width="76.6452" height="1.4229" transform="rotate(-0.0647046 969.815 131.427)" fill="#000851"/>
<rect x="969.821" y="137.119" width="58.1935" height="1.4229" transform="rotate(-0.0647046 969.821 137.119)" fill="#000851"/>
<rect x="963.175" y="93.517" width="108.29" height="53.0697" rx="1.5" transform="rotate(-0.0647046 963.175 93.517)" stroke="#000851"/>
<path d="M963.177 95.017C963.176 94.1886 963.847 93.5163 964.675 93.5153L1069.97 93.3964C1070.79 93.3955 1071.47 94.0663 1071.47 94.8947L1071.5 123.698L963.209 123.82L963.177 95.017Z" stroke="#000851"/>
<rect x="969.667" y="0.521973" width="76.6452" height="1.42288" transform="rotate(-0.0647046 969.667 0.521973)" fill="#000851"/>
<rect x="969.673" y="6.21362" width="58.1935" height="1.42288" transform="rotate(-0.0647046 969.673 6.21362)" fill="#000851"/>
<rect x="963.027" y="-37.3885" width="108.29" height="53.0697" rx="1.5" transform="rotate(-0.0647046 963.027 -37.3885)" stroke="#000851"/>
<rect x="969.741" y="65.9746" width="76.6452" height="1.42288" transform="rotate(-0.0647046 969.741 65.9746)" fill="#000851"/>
<rect x="969.747" y="71.6663" width="58.1935" height="1.42288" transform="rotate(-0.0647046 969.747 71.6663)" fill="#000851"/>
<rect x="963.101" y="28.0644" width="108.29" height="53.0697" rx="1.5" transform="rotate(-0.0647046 963.101 28.0644)" stroke="#000851"/>
<path d="M963.103 29.5644C963.102 28.7359 963.773 28.0636 964.601 28.0627L1069.89 27.9438C1070.72 27.9428 1071.39 28.6137 1071.39 29.4421L1071.43 58.2455L963.135 58.3678L963.103 29.5644Z" fill="#000851" stroke="#000851"/>
<rect x="963.249" y="158.97" width="48.6774" height="17.4975" rx="7.5" transform="rotate(-0.0647046 963.249 158.97)" stroke="#000851"/>
<rect x="1022.86" y="158.902" width="48.6774" height="17.4975" rx="7.5" transform="rotate(-0.0647046 1022.86 158.902)" stroke="#000851"/>
<rect x="952.115" y="-88.1" width="130" height="284" rx="7" transform="rotate(-0.0647046 952.115 -88.1)" stroke="#000851" stroke-width="2"/>
<rect x="969.815" y="131.427" width="76.6452" height="1.4229" transform="rotate(-0.0647046 969.815 131.427)" fill="#000851"/>
<rect x="969.821" y="137.119" width="58.1935" height="1.4229" transform="rotate(-0.0647046 969.821 137.119)" fill="#000851"/>
<rect x="963.175" y="93.517" width="108.29" height="53.0697" rx="1.5" transform="rotate(-0.0647046 963.175 93.517)" stroke="#000851"/>
<path d="M963.177 95.017C963.176 94.1886 963.847 93.5163 964.675 93.5153L1069.97 93.3964C1070.79 93.3955 1071.47 94.0663 1071.47 94.8947L1071.5 123.698L963.209 123.82L963.177 95.017Z" stroke="#000851"/>
<rect x="969.667" y="0.521973" width="76.6452" height="1.42288" transform="rotate(-0.0647046 969.667 0.521973)" fill="#000851"/>
<rect x="969.673" y="6.21362" width="58.1935" height="1.42288" transform="rotate(-0.0647046 969.673 6.21362)" fill="#000851"/>
<rect x="963.027" y="-37.3885" width="108.29" height="53.0697" rx="1.5" transform="rotate(-0.0647046 963.027 -37.3885)" stroke="#000851"/>
<rect x="969.741" y="65.9746" width="76.6452" height="1.42288" transform="rotate(-0.0647046 969.741 65.9746)" fill="#000851"/>
<rect x="969.747" y="71.6663" width="58.1935" height="1.42288" transform="rotate(-0.0647046 969.747 71.6663)" fill="#000851"/>
<rect x="963.101" y="28.0644" width="108.29" height="53.0697" rx="1.5" transform="rotate(-0.0647046 963.101 28.0644)" stroke="#000851"/>
<path d="M963.103 29.5644C963.102 28.7359 963.773 28.0636 964.601 28.0627L1069.89 27.9438C1070.72 27.9428 1071.39 28.6137 1071.39 29.4421L1071.43 58.2455L963.135 58.3678L963.103 29.5644Z" fill="#000851" stroke="#000851"/>
<rect x="963.249" y="158.97" width="48.6774" height="17.4975" rx="7.5" transform="rotate(-0.0647046 963.249 158.97)" stroke="#000851"/>
<rect x="1022.86" y="158.902" width="48.6774" height="17.4975" rx="7.5" transform="rotate(-0.0647046 1022.86 158.902)" stroke="#000851"/>
<rect x="952.115" y="-88.1" width="130" height="284" rx="7" transform="rotate(-0.0647046 952.115 -88.1)" stroke="#000851" stroke-width="2"/>
<path d="M341.769 361.571C341.772 364.213 339.634 366.357 336.994 366.36C334.355 366.363 332.212 364.224 332.209 361.582C332.206 358.94 334.344 356.797 336.984 356.794C339.623 356.791 341.766 358.929 341.769 361.571Z" stroke="#000851"/>
<path d="M365.001 361.545C365.004 364.187 362.866 366.331 360.226 366.334C357.587 366.337 355.444 364.198 355.441 361.556C355.438 358.914 357.576 356.77 360.216 356.767C362.855 356.764 364.998 358.903 365.001 361.545Z" stroke="#000851"/>
<path d="M388.233 361.519C388.236 364.161 386.098 366.305 383.458 366.308C380.819 366.311 378.676 364.172 378.673 361.53C378.67 358.888 380.808 356.744 383.448 356.741C386.087 356.738 388.23 358.877 388.233 361.519Z" stroke="#000851"/>
<path d="M411.465 361.493C411.468 364.135 409.33 366.279 406.691 366.281C404.051 366.284 401.908 364.146 401.905 361.504C401.902 358.862 404.04 356.718 406.68 356.715C409.319 356.712 411.462 358.851 411.465 361.493Z" stroke="#000851"/>
<path d="M434.697 361.466C434.7 364.108 432.562 366.252 429.922 366.255C427.283 366.258 425.14 364.119 425.137 361.477C425.134 358.835 427.272 356.692 429.912 356.689C432.551 356.686 434.694 358.824 434.697 361.466Z" fill="#000851" stroke="#000851"/>
<path d="M416.661 176.206L419.77 179.315" stroke="#000851" stroke-linecap="round" stroke-linejoin="round"/>
<path d="M419.815 179.238L425.902 173.123" stroke="#000851" stroke-linecap="round" stroke-linejoin="round"/>
<rect x="327.407" y="322.637" width="109.29" height="1.42288" transform="rotate(-0.0647046 327.407 322.637)" fill="#000851"/>
<rect x="334.51" y="328.321" width="93.6774" height="1.42288" transform="rotate(-0.0647046 334.51 328.321)" fill="#000851"/>
<rect x="330.26" y="335.44" width="103.613" height="1.42288" transform="rotate(-0.0647046 330.26 335.44)" fill="#000851"/>
<rect x="350.139" y="342.532" width="61.0323" height="1.4229" transform="rotate(-0.0647046 350.139 342.532)" fill="#000851"/>
<rect x="327.724" y="160.928" width="31.6452" height="31.7264" rx="1.5" transform="rotate(-0.0647046 327.724 160.928)" stroke="#000851"/>
<rect x="367.466" y="160.883" width="30.2258" height="31.7264" rx="1.5" transform="rotate(-0.0647046 367.466 160.883)" stroke="#000851"/>
<rect x="404.369" y="160.841" width="31.6452" height="31.7264" rx="1.5" transform="rotate(-0.0647046 404.369 160.841)" stroke="#000851"/>
<path d="M378.382 214.667L381.49 217.776" stroke="#000851" stroke-linecap="round" stroke-linejoin="round"/>
<path d="M381.536 217.699L387.622 211.584" stroke="#000851" stroke-linecap="round" stroke-linejoin="round"/>
<rect x="327.768" y="199.345" width="31.6452" height="31.7264" rx="1.5" transform="rotate(-0.0647046 327.768 199.345)" stroke="#000851"/>
<rect x="367.51" y="199.301" width="30.2258" height="31.7264" rx="1.5" transform="rotate(-0.0647046 367.51 199.301)" stroke="#000851"/>
<rect x="404.413" y="199.259" width="31.6452" height="31.7264" rx="1.5" transform="rotate(-0.0647046 404.413 199.259)" stroke="#000851"/>
<path d="M416.748 253.042L419.856 256.151" stroke="#000851" stroke-linecap="round" stroke-linejoin="round"/>
<path d="M419.902 256.074L425.988 249.959" stroke="#000851" stroke-linecap="round" stroke-linejoin="round"/>
<path d="M378.469 291.503L381.577 294.612" stroke="#000851" stroke-linecap="round" stroke-linejoin="round"/>
<path d="M381.623 294.535L387.709 288.42" stroke="#000851" stroke-linecap="round" stroke-linejoin="round"/>
<path d="M338.727 291.548L341.835 294.657" stroke="#000851" stroke-linecap="round" stroke-linejoin="round"/>
<path d="M341.881 294.58L347.967 288.464" stroke="#000851" stroke-linecap="round" stroke-linejoin="round"/>
<path d="M338.64 214.712L341.749 217.821" stroke="#000851" stroke-linecap="round" stroke-linejoin="round"/>
<path d="M341.794 217.744L347.88 211.629" stroke="#000851" stroke-linecap="round" stroke-linejoin="round"/>
<rect x="327.811" y="237.763" width="31.6452" height="31.7264" rx="1.5" transform="rotate(-0.0647046 327.811 237.763)" stroke="#000851"/>
<rect x="367.553" y="237.718" width="30.2258" height="31.7264" rx="1.5" transform="rotate(-0.0647046 367.553 237.718)" stroke="#000851"/>
<rect x="404.456" y="237.677" width="31.6452" height="31.7264" rx="1.5" transform="rotate(-0.0647046 404.456 237.677)" stroke="#000851"/>
<path d="M416.791 291.46L419.9 294.569" stroke="#000851" stroke-linecap="round" stroke-linejoin="round"/>
<path d="M419.946 294.491L426.032 288.376" stroke="#000851" stroke-linecap="round" stroke-linejoin="round"/>
<rect x="327.855" y="276.181" width="31.6452" height="31.7263" rx="1.5" transform="rotate(-0.0647046 327.855 276.181)" stroke="#000851"/>
<rect x="367.597" y="276.136" width="30.2258" height="31.7263" rx="1.5" transform="rotate(-0.0647046 367.597 276.136)" stroke="#000851"/>
<rect x="404.5" y="276.095" width="31.6452" height="31.7263" rx="1.5" transform="rotate(-0.0647046 404.5 276.095)" stroke="#000851"/>
<rect x="326.266" y="126.78" width="84.1613" height="17.4975" rx="7.5" transform="rotate(-0.0647046 326.266 126.78)" stroke="#000851"/>
<path d="M435.986 135.405C435.991 140.238 432.088 144.158 427.27 144.163C422.452 144.169 418.54 140.257 418.534 135.424C418.529 130.591 422.432 126.671 427.25 126.666C432.068 126.66 435.981 130.572 435.986 135.405Z" stroke="#000851"/>
<rect x="316.808" y="105.947" width="130" height="284" rx="7" transform="rotate(-0.0647046 316.808 105.947)" stroke="#000851" stroke-width="2"/>
<rect x="823.062" y="179.235" width="47.52" height="1.76108" transform="rotate(-0.0647046 823.062 179.235)" fill="#000851"/>
<rect x="823.068" y="184.518" width="36.96" height="1.76108" transform="rotate(-0.0647046 823.068 184.518)" fill="#000851"/>
<rect x="808.95" y="251.818" width="93.6774" height="1.42289" transform="rotate(-0.0647046 808.95 251.818)" fill="#000851"/>
<rect x="808.957" y="257.51" width="72.3871" height="1.42289" transform="rotate(-0.0647046 808.957 257.51)" fill="#000851"/>
<rect x="808.963" y="263.201" width="93.6774" height="1.42288" transform="rotate(-0.0647046 808.963 263.201)" fill="#000851"/>
<rect x="808.97" y="268.893" width="72.3871" height="1.42288" transform="rotate(-0.0647046 808.97 268.893)" fill="#000851"/>
<rect x="808.976" y="274.584" width="93.6774" height="1.42288" transform="rotate(-0.0647046 808.976 274.584)" fill="#000851"/>
<rect x="808.983" y="280.276" width="72.3871" height="1.42288" transform="rotate(-0.0647046 808.983 280.276)" fill="#000851"/>
<rect x="808.989" y="285.967" width="93.6774" height="1.42288" transform="rotate(-0.0647046 808.989 285.967)" fill="#000851"/>
<rect x="808.996" y="291.659" width="72.3871" height="1.42288" transform="rotate(-0.0647046 808.996 291.659)" fill="#000851"/>
<rect x="809.002" y="297.35" width="93.6774" height="1.4229" transform="rotate(-0.0647046 809.002 297.35)" fill="#000851"/>
<rect x="809.008" y="303.042" width="72.3871" height="1.42288" transform="rotate(-0.0647046 809.008 303.042)" fill="#000851"/>
<path d="M816.352 411.706C816.355 414.348 814.217 416.491 811.578 416.494C808.938 416.497 806.795 414.359 806.792 411.717C806.789 409.075 808.927 406.931 811.567 406.928C814.207 406.925 816.349 409.064 816.352 411.706Z" stroke="#000851"/>
<path d="M839.584 411.679C839.587 414.321 837.449 416.465 834.81 416.468C832.17 416.471 830.027 414.332 830.024 411.69C830.021 409.048 832.159 406.904 834.799 406.902C837.438 406.899 839.581 409.037 839.584 411.679Z" stroke="#000851"/>
<path d="M862.816 411.653C862.819 414.295 860.681 416.439 858.042 416.442C855.402 416.445 853.259 414.306 853.256 411.664C853.253 409.022 855.391 406.878 858.031 406.875C860.67 406.872 862.813 409.011 862.816 411.653Z" stroke="#000851"/>
<path d="M886.048 411.627C886.051 414.269 883.913 416.413 881.274 416.416C878.634 416.419 876.491 414.28 876.488 411.638C876.485 408.996 878.623 406.852 881.263 406.849C883.903 406.846 886.045 408.985 886.048 411.627Z" fill="#000851" stroke="#000851"/>
<path d="M909.28 411.601C909.283 414.243 907.145 416.386 904.506 416.389C901.866 416.392 899.723 414.254 899.72 411.612C899.717 408.97 901.855 406.826 904.495 406.823C907.135 406.82 909.277 408.959 909.28 411.601Z" stroke="#000851"/>
<path d="M818.307 182.086C818.312 186.526 814.726 190.127 810.3 190.132C805.874 190.137 802.28 186.544 802.275 182.104C802.27 177.664 805.856 174.063 810.282 174.058C814.708 174.053 818.302 177.646 818.307 182.086Z" stroke="#000851"/>
<rect x="802.296" y="201.102" width="27.3871" height="27.4577" rx="1.5" transform="rotate(-0.0647046 802.296 201.102)" stroke="#000851"/>
<rect x="802.346" y="245.211" width="108.29" height="65.8756" rx="1.5" transform="rotate(-0.0647046 802.346 245.211)" stroke="#000851"/>
<rect x="809.053" y="342.883" width="72.3871" height="1.4229" transform="rotate(-0.0647046 809.053 342.883)" fill="#000851"/>
<rect x="809.073" y="359.957" width="93.6774" height="1.42288" transform="rotate(-0.0647046 809.073 359.957)" fill="#000851"/>
<rect x="809.079" y="365.649" width="72.3871" height="1.42288" transform="rotate(-0.0647046 809.079 365.649)" fill="#000851"/>
<rect x="809.085" y="371.34" width="93.6774" height="1.42288" transform="rotate(-0.0647046 809.085 371.34)" fill="#000851"/>
<rect x="809.092" y="377.032" width="72.3871" height="1.42288" transform="rotate(-0.0647046 809.092 377.032)" fill="#000851"/>
<rect x="809.098" y="382.723" width="93.6774" height="1.42288" transform="rotate(-0.0647046 809.098 382.723)" fill="#000851"/>
<rect x="809.105" y="388.415" width="72.3871" height="1.42287" transform="rotate(-0.0647046 809.105 388.415)" fill="#000851"/>
<rect x="802.468" y="353.35" width="108.29" height="43.1095" rx="1.5" transform="rotate(-0.0647046 802.468 353.35)" stroke="#000851"/>
<rect x="802.427" y="316.355" width="108.29" height="27.4577" rx="1.5" transform="rotate(-0.0647046 802.427 316.355)" stroke="#000851"/>
<rect x="836.361" y="201.063" width="27.3871" height="27.4577" rx="1.5" transform="rotate(-0.0647046 836.361 201.063)" stroke="#000851"/>
<rect x="870.425" y="201.025" width="27.3871" height="27.4577" rx="1.5" transform="rotate(-0.0647046 870.425 201.025)" stroke="#000851"/>
<rect x="904.49" y="200.986" width="17.4516" height="27.4577" rx="1.5" transform="rotate(-0.0647046 904.49 200.986)" stroke="#000851"/>
<rect x="791.391" y="156.082" width="130" height="284" rx="7" transform="rotate(-0.0647046 791.391 156.082)" stroke="#000851" stroke-width="2"/>
<rect x="641.93" y="319.44" width="72.3871" height="1.42289" transform="rotate(-0.0647046 641.93 319.44)" fill="#000851"/>
<rect x="641.937" y="325.131" width="56.7742" height="1.42289" transform="rotate(-0.0647046 641.937 325.131)" fill="#000851"/>
<path d="M733.953 322.181C733.958 326.622 737.552 330.215 741.978 330.21C746.404 330.205 749.99 326.603 749.985 322.163C749.98 317.723 746.386 314.13 741.96 314.135C737.534 314.14 733.948 317.741 733.953 322.181Z" fill="#000851" stroke="#000851"/>
<rect x="641.959" y="345.052" width="47.52" height="1.76109" transform="rotate(-0.0647046 641.959 345.052)" fill="#000851"/>
<rect x="641.965" y="350.335" width="36.96" height="1.76109" transform="rotate(-0.0647046 641.965 350.335)" fill="#000851"/>
<path d="M740.398 348.498C740.401 350.973 742.405 352.975 744.871 352.973C747.337 352.97 749.337 350.963 749.334 348.487C749.331 346.012 747.327 344.01 744.861 344.012C742.395 344.015 740.395 346.022 740.398 348.498Z" fill="#000851" stroke="#000851"/>
<rect x="649.096" y="380.616" width="93.6774" height="1.42288" transform="rotate(-0.0647046 649.096 380.616)" fill="#000851"/>
<rect x="649.102" y="386.307" width="72.3871" height="1.42289" transform="rotate(-0.0647046 649.102 386.307)" fill="#000851"/>
<rect x="649.109" y="391.999" width="93.6774" height="1.42289" transform="rotate(-0.0647046 649.109 391.999)" fill="#000851"/>
<rect x="649.115" y="397.69" width="72.3871" height="1.42289" transform="rotate(-0.0647046 649.115 397.69)" fill="#000851"/>
<rect x="649.122" y="403.382" width="93.6774" height="1.42288" transform="rotate(-0.0647046 649.122 403.382)" fill="#000851"/>
<rect x="649.128" y="409.073" width="72.3871" height="1.42288" transform="rotate(-0.0647046 649.128 409.073)" fill="#000851"/>
<rect x="649.135" y="414.765" width="93.6774" height="1.42288" transform="rotate(-0.0647046 649.135 414.765)" fill="#000851"/>
<rect x="649.141" y="420.457" width="72.3871" height="1.42288" transform="rotate(-0.0647046 649.141 420.457)" fill="#000851"/>
<rect x="642.492" y="374.009" width="108.29" height="65.8756" rx="1.5" transform="rotate(-0.0647046 642.492 374.009)" stroke="#000851"/>
<rect x="733.296" y="344.026" width="16.0323" height="8.9602" rx="4.4801" transform="rotate(-0.0647046 733.296 344.026)" stroke="#000851"/>
<rect x="631.549" y="296.262" width="130" height="284" rx="7" transform="rotate(-0.0647046 631.549 296.262)" stroke="#000851" stroke-width="2"/>
<rect x="969.959" y="259.03" width="65.2903" height="1.42289" transform="rotate(-0.0647046 969.959 259.03)" fill="#000851"/>
<rect x="969.965" y="264.721" width="51.0968" height="1.42288" transform="rotate(-0.0647046 969.965 264.721)" fill="#000851"/>
<rect x="963.348" y="246.731" width="108.29" height="122.791" rx="1.5" transform="rotate(-0.0647046 963.348 246.731)" stroke="#000851"/>
<rect width="47.52" height="1.76108" transform="matrix(-0.999999 0.00112931 0.00112931 0.999999 1065.84 349.986)" fill="#000851"/>
<rect width="36.96" height="1.76109" transform="matrix(-0.999999 0.00112931 0.00112931 0.999999 1065.85 355.269)" fill="#000851"/>
<path d="M980.92 353.639C980.923 356.115 978.924 358.121 976.458 358.124C973.991 358.127 971.988 356.125 971.985 353.649C971.982 351.174 973.981 349.167 976.448 349.164C978.914 349.161 980.918 351.164 980.92 353.639Z" fill="#000851" stroke="#000851"/>
<rect x="-0.499435" y="0.500564" width="16.0323" height="8.96019" rx="4.48009" transform="matrix(-0.999999 0.00112931 0.00112931 0.999999 987.512 348.651)" stroke="#000851"/>
<rect x="970.475" y="273.758" width="94.0968" height="65.8756" rx="1.5" transform="rotate(-0.0647046 970.475 273.758)" stroke="#000851"/>
<rect x="963.539" y="416.054" width="108.29" height="8.96019" rx="4.48009" transform="rotate(-0.0647046 963.539 416.054)" stroke="#000851"/>
<rect x="963.539" y="416.054" width="94.0968" height="8.96019" rx="4.48009" transform="rotate(-0.0647046 963.539 416.054)" fill="#000851" stroke="#000851"/>
<rect x="963.522" y="400.403" width="108.29" height="8.96021" rx="4.4801" transform="rotate(-0.0647046 963.522 400.403)" stroke="#000851"/>
<rect x="963.522" y="400.403" width="23.129" height="8.96021" rx="4.4801" transform="rotate(-0.0647046 963.522 400.403)" fill="#000851" stroke="#000851"/>
<rect x="952.47" y="225.9" width="130" height="284" rx="7" transform="rotate(-0.0647046 952.47 225.9)" stroke="#000851" stroke-width="2"/>
<rect x="808.739" y="64.4553" width="72.3871" height="1.42288" transform="rotate(-0.0647046 808.739 64.4553)" fill="#000851"/>
<rect x="812.987" y="55.9131" width="85.1613" height="1.4229" transform="rotate(-0.0647046 812.987 55.9131)" fill="#000851"/>
<rect x="802.123" y="47.8881" width="108.29" height="17.4975" rx="1.5" transform="rotate(-0.0647046 802.123 47.8881)" stroke="#000851"/>
<rect x="800.751" y="89.1535" width="50.0968" height="17.4975" rx="7.5" transform="rotate(-0.0647046 800.751 89.1535)" stroke="#000851"/>
<rect x="863.202" y="89.0829" width="50.0968" height="17.4975" rx="7.5" transform="rotate(-0.0647046 863.202 89.0829)" fill="#000851" stroke="#000851"/>
<path d="M881.76 -59.4322C872.531 -65.7541 861.351 -68.5591 850.24 -67.3403C839.129 -66.1215 828.818 -60.9593 821.172 -52.7863C813.525 -44.6133 809.046 -33.9682 808.543 -22.774C808.041 -11.5798 811.549 -0.574578 818.433 8.25383C825.316 17.0822 835.123 23.1517 846.08 25.3658C857.037 27.58 868.423 25.7929 878.181 20.3272" stroke="#000851" stroke-width="4" stroke-linecap="round"/>
<path d="M828.697 18.3912C837.926 24.7131 849.106 27.518 860.217 26.2993C871.329 25.0805 881.639 19.9183 889.286 11.7453C896.933 3.57226 901.412 -7.07279 901.914 -18.267C902.416 -29.4612 898.909 -40.4664 892.025 -49.2948C885.141 -58.1232 875.335 -64.1927 864.377 -66.4068C853.42 -68.621 842.034 -66.8339 832.276 -61.3683" stroke="#000851" stroke-linecap="round"/>
<rect x="791.036" y="-157.918" width="130" height="284" rx="7" transform="rotate(-0.0647046 791.036 -157.918)" stroke="#000851" stroke-width="2"/>
</svg>
