<svg width="72" height="72" viewBox="-20 -20 72 72" fill="none" xmlns="http://www.w3.org/2000/svg">
<path fill-rule="evenodd" clip-rule="evenodd" d="M16 32C24.8366 32 32 24.8366 32 16C32 7.16344 24.8366 0 16 0C7.16344 0 0 7.16344 0 16C0 24.8366 7.16344 32 16 32ZM11.6667 6.66667C8.90524 6.66667 6.66667 8.90524 6.66667 11.6667V20.3333C6.66667 23.0948 8.90524 25.3333 11.6667 25.3333H20.3333C23.0948 25.3333 25.3333 23.0948 25.3333 20.3333V11.6667C25.3333 8.90524 23.0948 6.66667 20.3333 6.66667H11.6667ZM21.1856 16.0005C21.1856 18.8642 18.8642 21.1856 16.0005 21.1856C13.1368 21.1856 10.8153 18.8642 10.8153 16.0005C10.8153 13.1368 13.1368 10.8153 16.0005 10.8153C18.8642 10.8153 21.1856 13.1368 21.1856 16.0005ZM21.1856 11.8522C21.7584 11.8522 22.2227 11.3879 22.2227 10.8152C22.2227 10.2425 21.7584 9.77816 21.1856 9.77816C20.6129 9.77816 20.1486 10.2425 20.1486 10.8152C20.1486 11.3879 20.6129 11.8522 21.1856 11.8522Z"/>
</svg>
