<svg width="106" height="212" viewBox="0 0 106 212" fill="none" xmlns="http://www.w3.org/2000/svg">
<g clip-path="url(#clip0)">
<rect x="103.999" y="1" width="210" height="101.564" rx="11" transform="rotate(90 103.999 1)" stroke="#000851" stroke-width="2"/>
<rect x="105.493" y="26.401" width="6.922" height="0.592922" rx="0.296461" transform="rotate(90 105.493 26.401)" stroke="#000851" stroke-width="0.592922"/>
<rect x="105.493" y="39.8487" width="14.8325" height="0.592922" rx="0.296461" transform="rotate(90 105.493 39.8487)" stroke="#000851" stroke-width="0.592922"/>
<rect x="105.493" y="57.2517" width="14.8325" height="0.592922" rx="0.296461" transform="rotate(90 105.493 57.2517)" stroke="#000851" stroke-width="0.592922"/>
<rect x="1.13884" y="44.1994" width="22.7429" height="0.592922" rx="0.296461" transform="rotate(90 1.13884 44.1994)" stroke="#000851" stroke-width="0.592922"/>
<path d="M92.2556 5.74622C96.1216 5.74622 99.2556 8.88022 99.2556 12.7462L99.2556 199.254C99.2556 203.12 96.1216 206.254 92.2556 206.254H14.1786C10.3127 206.254 7.17864 203.12 7.17864 199.254L7.17864 12.8796C7.17864 8.96835 10.3837 5.8159 14.2944 5.88058L26.6104 6.08427C28.116 6.10917 29.3803 7.2243 29.5932 8.71496C29.9494 11.21 32.0862 13.0634 34.6065 13.0634L71.2658 13.0634C73.8807 13.0634 76.0927 11.13 76.4427 8.53864C76.6587 6.9394 78.0238 5.74622 79.6376 5.74622L92.2556 5.74622Z" stroke="#000851" stroke-width="2"/>
</g>
<defs>
<clipPath id="clip0">
<rect width="212" height="105.54" fill="white" transform="translate(105.79) rotate(90)"/>
</clipPath>
</defs>
</svg>
