<svg width="360" height="210" viewBox="0 0 360 210" fill="none" xmlns="http://www.w3.org/2000/svg">
<g clip-path="url(#clip0)">
<path d="M317.73 201.974H321.95C323.169 201.974 324.157 200.986 324.157 199.767V199.167C324.157 198.279 323.438 197.56 322.55 197.56V197.56" stroke="#000851" stroke-width="2"/>
<path d="M42.5781 201.974H38.3584C37.1394 201.974 36.1512 200.986 36.1512 199.767V199.167C36.1512 198.279 36.8706 197.56 37.7579 197.56V197.56" stroke="#000851" stroke-width="2"/>
<rect x="50.0051" y="14.76" width="259.495" height="172.169" stroke="#000851" stroke-width="2"/>
<rect x="37.9546" y="1.91809" width="284.399" height="198.254" rx="12" stroke="#000851" stroke-width="2"/>
<rect x="1" y="202.573" width="357.906" height="6.42751" rx="3.21375" stroke="#000851" stroke-width="2"/>
<path d="M123.755 204.057C123.081 203.619 123.391 202.573 124.194 202.573H234.49C235.441 202.573 235.772 203.835 234.945 204.303C233.218 205.278 231.269 205.79 229.285 205.79H129.607C127.53 205.79 125.497 205.188 123.755 204.057Z" stroke="#000851" stroke-width="2"/>
</g>
<defs>
<clipPath id="clip0">
<rect width="359.906" height="209.083" fill="white" transform="translate(0 0.918091)"/>
</clipPath>
</defs>
</svg>
