<svg width="24" height="16" viewBox="0 0 24 16" fill="none" xmlns="http://www.w3.org/2000/svg">
<path fill-rule="evenodd" clip-rule="evenodd" d="M1.07802 1.6121C1.02777 1.73138 1 1.86245 1 2V14C1 14.5523 1.44772 15 2 15H22C22.5523 15 23 14.5523 23 14V2C23 1.86245 22.9722 1.73138 22.922 1.6121L12.2394 7.43895C12.0902 7.52035 11.9098 7.52035 11.7606 7.43895L1.07802 1.6121ZM0 2C0 0.895431 0.895431 0 2 0H22C23.1046 0 24 0.895431 24 2V14C24 15.1046 23.1046 16 22 16H2C0.89543 16 0 15.1046 0 14V2ZM12 6.43046L2.96083 1.5H21.0392L12 6.43046Z" fill="white"/>
</svg>
