<svg width="299" height="201" viewBox="0 0 299 201" fill="none" xmlns="http://www.w3.org/2000/svg">
<rect x="1.4502" y="1" width="295.275" height="199" rx="3" stroke="#000851" stroke-width="2"/>
<rect x="1.4502" y="20.4878" width="295.553" height="179.48" rx="1" stroke="#000851" stroke-width="2"/>
<path d="M21.0468 11.5709C21.0468 14.0599 19.0631 16.0519 16.6477 16.0519C14.2322 16.0519 12.2485 14.0599 12.2485 11.5709C12.2485 9.08192 14.2322 7.08997 16.6477 7.08997C19.0631 7.08997 21.0468 9.08192 21.0468 11.5709Z" stroke="#000851" stroke-width="2"/>
<path d="M42.643 11.5709C42.643 14.0599 40.6593 16.0519 38.2439 16.0519C35.8284 16.0519 33.8447 14.0599 33.8447 11.5709C33.8447 9.08192 35.8284 7.08997 38.2439 7.08997C40.6593 7.08997 42.643 9.08192 42.643 11.5709Z" stroke="#000851" stroke-width="2"/>
<path d="M64.2397 11.5709C64.2397 14.0599 62.256 16.0519 59.8405 16.0519C57.4251 16.0519 55.4414 14.0599 55.4414 11.5709C55.4414 9.08192 57.4251 7.08997 59.8405 7.08997C62.256 7.08997 64.2397 9.08192 64.2397 11.5709Z" stroke="#000851" stroke-width="2"/>
</svg>
