<svg width="28" height="26" viewBox="0 0 28 26" fill="none" xmlns="http://www.w3.org/2000/svg">
<path d="M2 5.42094L1.551 5.20095L1.46652 5.37337L1.51916 5.55803L2 5.42094ZM2 5.42094C1.51916 5.55803 1.51921 5.5582 1.51926 5.55839L1.51941 5.55889L1.51982 5.56033L1.52113 5.56488L1.52577 5.58067C1.52975 5.59415 1.53554 5.61348 1.54321 5.63847C1.55855 5.68846 1.58139 5.76108 1.61231 5.85474C1.67414 6.04205 1.76828 6.31358 1.89925 6.65645C2.16114 7.34209 2.57055 8.31375 3.16373 9.46833C4.34967 11.7767 6.27303 14.8219 9.2254 17.7742C12.2737 20.8224 15.468 22.7565 17.9084 23.9246C19.1289 24.5089 20.1629 24.9024 20.899 25.1485C21.2669 25.2715 21.5617 25.3581 21.7695 25.4135C21.8729 25.441 21.9576 25.4616 22.0207 25.4751C22.0512 25.4816 22.0826 25.4878 22.1111 25.4922C22.1239 25.4941 22.1465 25.4973 22.1724 25.4989C22.1843 25.4997 22.2098 25.501 22.2415 25.4988C22.2573 25.4978 22.2848 25.4953 22.3183 25.4878C22.3451 25.4818 22.4138 25.4648 22.4879 25.4154C23.1585 24.9683 24.3143 24.0084 25.1529 22.7505C25.5208 22.1985 25.8495 21.539 26.0828 21.0284C26.2005 20.7709 26.2959 20.5467 26.3621 20.3865C26.3952 20.3064 26.4211 20.2421 26.4388 20.1974L26.4592 20.1456L26.4647 20.1316L26.4662 20.1277L26.4666 20.1266L26.4667 20.1262L26.4668 20.1261C26.4668 20.1261 26.4668 20.126 26 19.9469L26.4668 20.126L26.6172 19.7341L26.2572 19.5182L19.9415 15.7288L19.6843 15.5744L19.427 15.7288L16.5375 17.4625C16.5324 17.459 16.5273 17.4555 16.522 17.452C16.3446 17.3313 16.083 17.1466 15.7535 16.8942C15.0945 16.3894 14.1639 15.6143 13.0905 14.5408C12.16 13.6104 11.2246 12.5197 10.5186 11.6568C10.1664 11.2263 9.87296 10.8546 9.66776 10.5908C9.62479 10.5356 9.58569 10.485 9.55076 10.4397L11.2709 7.57289L11.4253 7.31563L11.2709 7.05838L7.48144 0.742747L7.33579 0.5H7.0527C6.8032 0.5 6.40499 0.504245 5.81234 0.784965C5.24176 1.05523 4.51124 1.57117 3.54125 2.54113C2.8689 3.21347 2.37475 3.87226 2.04789 4.36415C1.88425 4.6104 1.76193 4.81575 1.67965 4.96129C1.6385 5.0341 1.60731 5.09202 1.58593 5.13273C1.57524 5.15308 1.56699 5.16914 1.56118 5.1806L1.55428 5.19433L1.55218 5.19854L1.55148 5.19997L1.55121 5.20052L1.5511 5.20075C1.55105 5.20085 1.551 5.20095 2 5.42094Z" stroke="white"/>
</svg>
