<svg viewBox="0 0 501 501" fill="none" xmlns="http://www.w3.org/2000/svg">
<path fill-rule="evenodd" clip-rule="evenodd" d="M451.729 158.319C439.155 138.601 436.728 122.429 436.445 88.303C436.037 39.2017 370.913 -1.83545 304.626 0.565999C265.245 1.99268 251.417 11.655 211.711 22.1758C195.682 26.423 179.035 30.756 169.479 32.3061C160.523 33.7591 150.213 33.0932 138.627 32.8836C116.617 32.4854 97.4209 29.9089 70.9219 40.5022C32.4454 55.8837 0.691749 100.251 5.02542 142.024C6.86495 159.755 11.6609 172.915 16.1301 185.178C22.1896 201.804 27.6484 216.783 24.3229 239.273C22.1167 254.192 17.5774 265.546 13.0222 276.939C5.64657 295.386 -1.77065 313.937 0.607861 347.9C2.21651 370.871 49.0518 426.306 90.0167 429.508C244.078 441.549 197.462 518.962 302.75 496.352C357.5 484.596 346.276 472.26 389.298 389.484C419.017 332.304 478.428 371.183 497.802 284.018C509.185 232.809 476.901 197.794 451.729 158.319ZM450.935 168.802C435.544 146.075 430.449 128.335 422.907 88.0295C412.699 33.4787 346.671 26.6822 318.067 21.6254C289.462 16.5687 258.241 22.7057 216.777 31.7705C166.029 42.8652 151.17 43.314 134.665 43.3458C123.367 43.3675 109.874 42.5966 91.4464 47.2658C51.236 57.4542 18.0262 96.2094 18.0262 147.414C18.0262 169.616 21.4621 180.522 24.6914 190.773C28.9743 204.368 32.8938 216.809 27.9523 252.916C26.6619 262.346 25.2511 270.964 23.9416 278.964C16.4559 324.696 8.89252 339.183 32.2585 370.565C55.6244 401.947 68.7571 424.737 110.999 426.502C158.401 428.482 192.461 443.021 222.387 464.472C244.578 480.378 265.307 488.046 303.664 478.746C369.855 462.697 360.638 418.536 378.132 385.805C412.096 322.261 447.951 357.277 472.527 288.48C489.461 241.075 486.585 221.443 450.935 168.802Z" fill="url(#paint0_linear)"/>
<defs>
<linearGradient id="paint0_linear" x1="670.475" y1="263.976" x2="401.2" y2="-646.884" gradientUnits="userSpaceOnUse">
<animate attributeName="x1" dur="15s" repeatCount="indefinite" values="-10.00; 616.68; 620.31; -19.51; -10.00" />
<animate attributeName="y1" dur="15s" repeatCount="indefinite" values="626.68; 630.31; 3.62; -0.13; 626.68" />
<animate attributeName="x2" dur="15s" repeatCount="indefinite" values="608.99; -2.31; 1.31; 599.48; 608.99" />
<animate attributeName="y2" dur="15s" repeatCount="indefinite" values="7.68; 11.31; 622.62; 618.86; 7.68;" />
<stop stop-color="white"/>
<stop offset="0.998456" stop-color="white" stop-opacity="0"/>
</linearGradient>
</defs>
</svg>