<svg  viewBox="0 0 501 501" fill="none" xmlns="http://www.w3.org/2000/svg">
<path fill-rule="evenodd" clip-rule="evenodd" d="M496.753 190.115C488.808 147.627 454.92 115.643 415.395 96.7362C402.909 90.7636 382.575 86.0351 369.975 82.05C356.699 77.8515 348.802 77.1538 332.046 67.3415C323.151 62.1324 319.873 55.3856 310.55 42.5317C288.293 11.8465 246.215 -12.5156 195.846 7.54533C162.223 20.9366 140.306 47.3629 121.995 72.3124C103.81 97.0905 83.3985 124.902 41.3391 150.452C8.79915 170.22 -2.88784 204.256 1.17365 257.8C3.53258 288.899 20.5765 311.878 41.036 339.462C55.8028 359.371 72.3489 381.679 86.4373 411.17C117.221 475.609 186.129 494.11 223.16 497.791C292.205 504.656 334.073 497.797 366.568 467.552C397.2 439.04 394.578 432.966 407.201 400.307C417.69 373.167 412.119 363.077 431.9 338.689C446.393 320.822 448.277 318.807 476.495 296.92C491.526 285.262 507.829 249.348 496.753 190.115ZM16.7466 241.611C22.162 185.321 34.8069 170.496 58.1634 148.757C94.4236 115.006 114.533 91.5251 129.291 74.2925C152.386 47.3241 164.939 37.5021 203.215 25.7308C252.793 10.4841 282.331 33.4971 303.964 53.7389C309.488 58.9071 315.067 64.1277 321.196 68.8367C347.156 88.7809 388.824 95.3753 409.861 106.154C436.948 120.033 446.728 138.138 461.508 159.894C478.768 185.302 506.83 257.994 460.8 300.614C429.661 329.445 416.69 346.117 397.225 400.633C379.625 436.329 339.641 478.575 268.146 487.533C211.459 494.635 121.931 471.082 93.4337 409.169C81.1451 382.471 66.8617 361.226 53.9472 342.017C31.3555 308.414 12.9529 281.043 16.7466 241.611Z" fill="url(#paint0_linear)"/>
<defs>
<linearGradient id="paint0_linear" x1="160.318" y1="-59.6996" x2="363.663" y2="803.156" gradientUnits="userSpaceOnUse">
<animate attributeName="x1" dur="15s" repeatCount="indefinite" values="620.31; 616.68; -10.00; -19.51; 620.31" />
<animate attributeName="y1" dur="15s" repeatCount="indefinite" values="3.62; 630.31; 626.68; -0.13; 3.62" />
<animate attributeName="x2" dur="15s" repeatCount="indefinite" values="1.31; -2.31; 608.99; 599.48; 1.31" />
<animate attributeName="y2" dur="15s" repeatCount="indefinite" values="622.62; 11.31; 7.68; 618.86; 622.62;" />
<stop stop-color="white"/>
<stop offset="1" stop-color="white" stop-opacity="0"/>
</linearGradient>
</defs>
</svg>