<svg width="104" height="201" viewBox="0 0 104 201" fill="none" xmlns="http://www.w3.org/2000/svg">
<g clip-path="url(#clip0)">
<rect x="102" y="1" width="199.128" height="101" rx="11" transform="rotate(90 102 1)" stroke="#000851" stroke-width="2"/>
<rect x="103.75" y="25.266" width="19.5128" height="0.5" rx="0.25" transform="rotate(90 103.75 25.266)" stroke="#000851" stroke-width="0.5"/>
<rect x="103.75" y="48.2806" width="20.5134" height="0.5" rx="0.25" transform="rotate(90 103.75 48.2806)" stroke="#000851" stroke-width="0.5"/>
<path d="M91 5C94.866 5 98 8.13401 98 12L98 188C98 191.866 94.866 195 91 195H12C8.134 195 4.99999 191.866 4.99999 188L4.99999 12C4.99999 8.13401 8.134 5 12 5L61.8901 5L91 5Z" stroke="#000851" stroke-width="2"/>
<path d="M53.6923 12C53.6923 13.6942 52.3814 15 50.8462 15C49.3109 15 48 13.6942 48 12C48 10.3058 49.3109 9 50.8462 9C52.3814 9 53.6923 10.3058 53.6923 12Z" stroke="#000851" stroke-width="2"/>
</g>
<defs>
<clipPath id="clip0">
<rect width="201" height="104" fill="white" transform="translate(104) rotate(90)"/>
</clipPath>
</defs>
</svg>
