<svg width="72" height="72" viewBox="0 0 72 72" fill="none" xmlns="http://www.w3.org/2000/svg">
<g filter="url(#filter0_d)">
<path fill-rule="evenodd" clip-rule="evenodd" d="M36 52C44.8366 52 52 44.8366 52 36C52 27.1634 44.8366 20 36 20C27.1634 20 20 27.1634 20 36C20 44.8366 27.1634 52 36 52ZM45.5871 30.2963L45.5231 30.1746C45.4803 30.1016 45.37 30.0347 45.192 29.9738C45.014 29.913 44.7862 29.9029 44.5085 29.9434L41.4329 29.9678C41.383 29.9475 41.3118 29.9495 41.2193 29.9738L41.0804 30.0103L41.027 30.0408L40.9843 30.0773C40.9487 30.1016 40.9096 30.1442 40.8668 30.205C40.8241 30.2658 40.7885 30.3368 40.7601 30.4179C40.4254 31.3994 40.0445 32.3119 39.6174 33.1555C39.3539 33.6584 39.1119 34.0944 38.8912 34.4635C38.6705 34.8325 38.4853 35.1043 38.3358 35.2786C38.1863 35.453 38.0511 35.593 37.93 35.6984C37.809 35.8039 37.7164 35.8485 37.6524 35.8322C37.5883 35.816 37.5278 35.7998 37.4708 35.7836C37.3711 35.7106 37.291 35.6112 37.2305 35.4855C37.17 35.3598 37.1291 35.2016 37.1077 35.011C37.0863 34.8204 37.0739 34.6561 37.0703 34.5182C37.0668 34.3803 37.0686 34.1856 37.0757 33.9342C37.0828 33.6827 37.0863 33.5124 37.0863 33.4232C37.0863 33.115 37.0917 32.7804 37.1024 32.4194C37.113 32.0584 37.1219 31.7725 37.1291 31.5616C37.1362 31.3507 37.1397 31.1277 37.1397 30.8924C37.1397 30.6572 37.1273 30.4727 37.1024 30.3388C37.0775 30.205 37.0401 30.0752 36.9902 29.9495C36.9404 29.8238 36.8674 29.7264 36.7713 29.6575C36.6752 29.5886 36.5559 29.5338 36.4135 29.4932C36.0362 29.3959 35.5556 29.3432 34.9718 29.3351C33.6476 29.3188 32.7968 29.4162 32.4195 29.6271C32.2628 29.7163 32.1276 29.838 32.0136 29.9921C31.8855 30.1705 31.8677 30.2679 31.9603 30.2841C32.3874 30.3571 32.69 30.5315 32.868 30.8073L32.9321 30.9533C32.9819 31.0587 33.0317 31.2453 33.0816 31.513C33.1314 31.7806 33.1635 32.0767 33.1777 32.4012C33.2133 32.9933 33.2133 33.5002 33.1777 33.922C33.1421 34.3438 33.1083 34.6723 33.0762 34.9076C33.0442 35.1428 32.9962 35.3334 32.9321 35.4794C32.868 35.6254 32.8253 35.7146 32.8039 35.7471C32.7826 35.7795 32.7648 35.7998 32.7505 35.8079C32.658 35.8485 32.5619 35.8687 32.4622 35.8687C32.3625 35.8687 32.2415 35.812 32.0991 35.6984C31.9567 35.5848 31.809 35.4287 31.6559 35.23C31.5028 35.0313 31.3302 34.7534 31.1379 34.3965C30.9457 34.0396 30.7464 33.6179 30.5399 33.1312L30.369 32.7783C30.2622 32.5512 30.1163 32.2207 29.9312 31.7867C29.7461 31.3528 29.5823 30.933 29.4399 30.5274C29.383 30.3571 29.2975 30.2273 29.1836 30.1381L29.1302 30.1016C29.0946 30.0691 29.0377 30.0347 28.9593 29.9982C28.881 29.9617 28.7992 29.9353 28.7137 29.9191L25.7876 29.9434C25.4886 29.9434 25.2856 30.0205 25.1789 30.1746L25.1361 30.2476C25.1148 30.2882 25.1041 30.353 25.1041 30.4423C25.1041 30.5315 25.1255 30.641 25.1682 30.7708C25.5953 31.9145 26.0599 33.0176 26.5618 34.0802C27.0638 35.1428 27.4998 35.9985 27.8701 36.6474C28.2403 37.2963 28.6176 37.9087 29.0021 38.4846C29.3865 39.0606 29.641 39.4296 29.7656 39.5918C29.8902 39.7541 29.9881 39.8757 30.0593 39.9569L30.3263 40.2489C30.4972 40.4435 30.7481 40.6767 31.0792 40.9485C31.4103 41.2202 31.7769 41.4879 32.1792 41.7515C32.5814 42.0151 33.0495 42.2301 33.5835 42.3963C34.1175 42.5626 34.6372 42.6295 35.1427 42.5971H36.3708C36.62 42.5728 36.8087 42.4835 36.9368 42.3294L36.9796 42.2686C37.008 42.2199 37.0347 42.1449 37.0597 42.0435C37.0846 41.9421 37.097 41.8306 37.097 41.7089C37.0899 41.3601 37.113 41.0458 37.1664 40.766C37.2198 40.4861 37.2804 40.2752 37.348 40.1333C37.4156 39.9913 37.4922 39.8717 37.5776 39.7744C37.663 39.677 37.7236 39.6182 37.7591 39.5979C37.7947 39.5777 37.8232 39.5635 37.8446 39.5553C38.0155 39.4905 38.2166 39.5533 38.448 39.7439C38.6794 39.9345 38.8965 40.1698 39.0994 40.4496C39.3023 40.7295 39.5462 41.0438 39.8309 41.3926C40.1157 41.7413 40.3649 42.0009 40.5785 42.1712L40.7921 42.3173C40.9345 42.4146 41.1196 42.5038 41.3474 42.5849C41.5752 42.666 41.7746 42.6863 41.9455 42.6458L44.6794 42.5971C44.9499 42.5971 45.16 42.5464 45.3095 42.445C45.459 42.3436 45.548 42.2321 45.5765 42.1104C45.6049 41.9887 45.6067 41.8509 45.5818 41.6967C45.5569 41.5426 45.532 41.4351 45.507 41.3743C45.4821 41.3135 45.459 41.2628 45.4376 41.2222C45.0816 40.4922 44.4017 39.5959 43.3979 38.5333C43.3907 38.5171 43.3729 38.5009 43.3445 38.4846C43.1024 38.2332 42.8995 38.0182 42.7357 37.8398C42.572 37.6614 42.4563 37.487 42.3887 37.3166C42.321 37.1463 42.2747 37.0064 42.2498 36.8969C42.2249 36.7874 42.2676 36.617 42.378 36.3858C42.4883 36.1547 42.5969 35.9539 42.7037 35.7836C42.8105 35.6132 43.0063 35.3212 43.2911 34.9076C43.583 34.4777 43.8144 34.1329 43.9852 33.8734C45.2169 32.0078 45.7509 30.8154 45.5871 30.2963Z"/>
</g>
<defs>
<filter id="filter0_d" x="0" y="0" width="72" height="72" filterUnits="userSpaceOnUse" color-interpolation-filters="sRGB">
<feFlood flood-opacity="0" result="BackgroundImageFix"/>
<feColorMatrix in="SourceAlpha" type="matrix" values="0 0 0 0 0 0 0 0 0 0 0 0 0 0 0 0 0 0 127 0"/>
<feOffset/>
<feGaussianBlur stdDeviation="10"/>
<feColorMatrix type="matrix" values="0 0 0 0 0 0 0 0 0 0 0 0 0 0 0 0 0 0 0.25 0"/>
<feBlend mode="normal" in2="BackgroundImageFix" result="effect1_dropShadow"/>
<feBlend mode="normal" in="SourceGraphic" in2="effect1_dropShadow" result="shape"/>
</filter>
</defs>
</svg>
