<svg id="shape_new2" xmlns="http://www.w3.org/2000/svg" xmlns:xlink="http://www.w3.org/1999/xlink" viewBox="0 0 702 704" shape-rendering="geometricPrecision" text-rendering="geometricPrecision"><defs><linearGradient id="shape_new2-path1-fill" x1="574" y1="111" x2="-76.527200" y2="736.452000" spreadMethod="pad" gradientUnits="userSpaceOnUse"><stop id="shape_new2-path1-fill-0" offset="0%" stop-color="rgb(255,255,255)"/><stop id="shape_new2-path1-fill-1" offset="100%" stop-color="rgba(255,255,255,0)"/></linearGradient></defs><path id="shape_new2-path1" d="M533.364000,539.222000C566.297000,510.056000,576.351000,463.371000,572,418.500000C570.625000,404.326000,564.019000,383.844000,560.848000,370.603000C557.506000,356.653000,553.945000,349.291000,553.672000,329.333000C553.526000,318.738000,557.691000,312.320000,564,297.365000C579.061000,261.663000,578.129000,211.688000,534,177.500000C504.543000,154.678000,469.876000,149.017000,438.405000,145.783000C407.150000,142.571000,372.067000,138.966000,327.530000,115C293.073000,96.457600,257.159000,103.825000,212.515000,135.307000C186.585000,153.591000,175.506000,180.661000,162.206000,213.155000C152.606000,236.608000,141.850000,262.887000,123.520000,290.729000C83.465900,351.564000,103.688000,422.262000,120.026000,456.994000C150.489000,521.754000,178.591000,555.284000,222.181000,568.329000C263.272000,580.627000,267.195000,575.141000,302.400000,569.320000C331.655000,564.482000,337.530000,554.291000,369.287000,559.121000C392.554000,562.659000,395.310000,563.280000,429.337000,576.888000C447.461000,584.137000,487.454000,579.882000,533.364000,539.222000ZM234.886000,140.676000C286.934000,116.163000,306.565000,119.649000,337.897000,129.026000C386.537000,143.583000,417.675000,149.175000,440.527000,153.279000C476.289000,159.702000,491.501000,165.711000,522,193.500000C561.504000,229.494000,556.993000,267.653000,550.729000,297.365000C549.129000,304.951000,547.514000,312.613000,546.636000,320.497000C542.916000,353.887000,559.158000,394.245000,560.848000,418.500000C563.024000,449.731000,552.367000,467.826000,541.161000,492.252000C528.073000,520.778000,479.370000,583.499000,417.820000,564.903000C376.183000,552.323000,354.764000,549.509000,296.847000,560.650000C256.361000,563.641000,198.329000,550.208000,152.747000,491.517000C116.605000,444.982000,89.909100,353.381000,128.963000,295.887000C145.803000,271.095000,156.825000,247.374000,166.791000,225.927000C184.224000,188.409000,198.425000,157.848000,234.886000,140.676000Z" transform="matrix(1.41808102116055 0 0 1.34419844432129 -126.50296183458624 -107.75548976997248)" clip-rule="evenodd" fill="url(#shape_new2-path1-fill)" fill-rule="evenodd" stroke="none" stroke-width="1"/></svg>