<svg id="shape_new1" xmlns="http://www.w3.org/2000/svg" xmlns:xlink="http://www.w3.org/1999/xlink" viewBox="0 0 666 648" shape-rendering="geometricPrecision" text-rendering="geometricPrecision"><defs><linearGradient id="shape_new1-path1-fill" x1="90.999800" y1="545" x2="833.742000" y2="-92.134500" spreadMethod="pad" gradientUnits="userSpaceOnUse"><stop id="shape_new1-path1-fill-0" offset="0%" stop-color="rgb(255,255,255)"/><stop id="shape_new1-path1-fill-1" offset="99.845600%" stop-color="rgba(255,255,255,0)"/></linearGradient></defs><path id="shape_new1-path1" d="M496.700000,465.861000C510.748000,446.676000,525.254000,437.957000,557.695000,423.863000C604.372000,403.585000,618.871000,329,591.500000,271C575.239000,236.543000,560.792000,228.159000,535.734000,197.101000C525.619000,184.563000,515.187000,171.510000,510.094000,163.638000C505.319000,156.259000,502.053000,146.816000,497.869000,136.423000C489.922000,116.680000,485.116000,98.556500,464.986000,79.277800C435.758000,51.285100,381.428000,41.030700,343.226000,61.829700C327.011000,70.658400,316.275000,80.262900,306.270000,89.213000C292.705000,101.348000,280.485000,112.280000,257.776000,118.444000C242.712000,122.532000,230.166000,123.099000,217.576000,123.667000C197.191000,124.588000,176.692000,125.514000,145.199000,141.406000C123.900000,152.154000,80.008000,220.426000,101.194000,254.052000C172.969000,367.967000,56.529900,385.927000,117.931000,470.429000C149.859000,514.369000,157.377000,499.380000,252.603000,504.081000C318.384000,507.328000,303.781000,575.955000,394.246000,557.837000C447.394000,547.192000,468.575000,504.268000,496.700000,465.861000ZM486.401000,469.406000C502.254000,446.495000,517.245000,434.766000,552.834000,411.708000C601,380.500000,582.500000,319,576.500000,291.500000C570.500000,264,552.834000,238.712000,528.500000,205.500000C498.717000,164.851000,492.667000,151.813000,486.392000,137.142000C482.096000,127.099000,477.727000,114.782000,466.301000,100.281000C441.370000,68.639600,391.841000,54.813200,343.004000,75.582600C321.830000,84.587800,312.728000,92.068400,304.173000,99.099200C292.827000,108.424000,282.444000,116.957000,246.137000,127.207000C236.655000,129.883000,227.901000,132.124000,219.776000,134.204000C173.326000,146.093000,156.648000,145.240000,135.557000,178.758000C114.467000,212.275000,104.963000,232.658000,119.263000,270.956000C135.309000,313.931000,142.422000,358.543000,126.422000,385.325000C112.545000,408.552000,111.685000,433.747000,135.068000,464.100000C175.420000,516.479000,214.051000,490.367000,251.888000,492.655000C325.344000,497.097000,305.513000,543.200000,380.427000,537.160000C432.047000,532.997000,449.683000,522.475000,486.401000,469.406000Z" clip-rule="evenodd" fill="url(#shape_new1-path1-fill)" fill-rule="evenodd" stroke="none" stroke-width="1"/></svg>