<svg id="shape_new1" xmlns="http://www.w3.org/2000/svg" xmlns:xlink="http://www.w3.org/1999/xlink" 
viewBox="0 0 666 648" shape-rendering="geometricPrecision" text-rendering="geometricPrecision"><defs><linearGradient 
id="shape_new1-path1-fill" x1="90.999800" y1="545" x2="833.742000" y2="-92.134500" spreadMethod="pad" gradientUnits="userSpaceOnUse">
<stop id="shape_new1-path1-fill-0" offset="0%" stop-color="rgb(255,255,255)"/><stop id="shape_new1-path1-fill-1" offset="99.845600%" 
stop-color="rgba(255,255,255,0)"/></linearGradient></defs>
<path id="shape_new1-path1" 
d="M496.700000,465.861000C510.748000,446.676000,525.254000,437.957000,557.695000,423.863000C604.372000,403.585000,618.871000,329,591.500000,271C575.239000,236.543000,560.792000,228.159000,535.734000,197.101000C525.619000,184.563000,515.187000,171.510000,510.094000,163.638000C505.319000,156.259000,502.053000,146.816000,497.869000,136.423000C489.922000,116.680000,485.116000,98.556500,464.986000,79.277800C435.758000,51.285100,381.428000,41.030700,343.226000,61.829700C327.011000,70.658400,316.275000,80.262900,306.270000,89.213000C292.705000,101.348000,280.485000,112.280000,257.776000,118.444000C242.712000,122.532000,230.166000,123.099000,217.576000,123.667000C197.191000,124.588000,176.692000,125.514000,145.199000,141.406000C123.900000,152.154000,80.008000,220.426000,101.194000,254.052000C172.969000,367.967000,56.529900,385.927000,117.931000,470.429000C149.859000,514.369000,157.377000,499.380000,252.603000,504.081000C318.384000,507.328000,303.781000,575.955000,394.246000,557.837000C447.394000,547.192000,468.575000,504.268000,496.700000,465.861000ZM486.401000,469.406000C502.254000,446.495000,517.245000,434.766000,552.834000,411.708000C601,380.500000,582.500000,319,576.500000,291.500000C570.500000,264,552.834000,238.712000,528.500000,205.500000C498.717000,164.851000,492.667000,151.813000,486.392000,137.142000C482.096000,127.099000,477.727000,114.782000,466.301000,100.281000C441.370000,68.639600,391.841000,54.813200,343.004000,75.582600C321.830000,84.587800,312.728000,92.068400,304.173000,99.099200C292.827000,108.424000,282.444000,116.957000,246.137000,127.207000C236.655000,129.883000,227.901000,132.124000,219.776000,134.204000C173.326000,146.093000,156.648000,145.240000,135.557000,178.758000C114.467000,212.275000,104.963000,232.658000,119.263000,270.956000C135.309000,313.931000,142.422000,358.543000,126.422000,385.325000C112.545000,408.552000,112.174000,428.522775,135.557000,458.875775C175.909000,511.254775,214.051000,490.367000,251.888000,492.655000C325.344000,497.097000,305.513000,543.200000,380.427000,537.160000C432.047000,532.997000,449.683000,522.475000,486.401000,469.406000Z"
clip-rule="evenodd" fill="url(#shape_new1-path1-fill)" fill-rule="evenodd" stroke="none" stroke-width="1">
<animate attributeName="d" dur="5s" repeatCount="indefinite"
to="M504.754351,502.948590C518.802351,483.763590,525.254000,437.957000,557.695000,423.863000C604.372000,403.585000,602.123350,334.103221,574.752350,276.103221C558.491350,241.646221,535.152000,239.755740,510.094000,208.697740C499.979000,196.159740,496.884759,191.940814,504.754351,163.328666C499.979351,155.949666,502.053000,146.816000,497.869000,136.423000C489.922000,116.680000,506.522000,81.108400,486.392000,61.829700C457.164000,33.837000,381.428000,41.030700,343.226000,61.829700C327.011000,70.658400,316.275000,80.262900,306.270000,89.213000C292.705000,101.348000,292.840426,119.573147,270.131426,125.737147C255.067426,129.825147,230.166000,118.687851,217.576000,119.255851C197.191000,120.176851,166.813464,120.531000,135.320464,136.423000C114.021464,147.171000,101.620684,193.274149,101.194000,254.052000C172.969000,367.967000,65.020900,371.781257,126.422000,456.283257C158.350000,500.223257,143.795204,550.097960,239.021204,554.798960C304.802204,558.045960,265.219537,521.066590,355.684537,502.948590C408.832537,492.303590,476.629351,541.355590,504.754351,502.948590ZM497.869000,483.504701C513.722000,460.593701,517.245000,434.766000,552.834000,411.708000C601,380.500000,563.695000,319.158332,557.695000,291.658332C551.695000,264.158332,522.203000,250.983554,497.869000,217.771554C468.086000,177.122554,492.667000,151.813000,486.392000,137.142000C482.096000,127.099000,487.662647,96.165333,476.236647,81.664333C451.305647,50.022933,391.841000,54.813200,343.004000,75.582600C321.830000,84.587800,324.055500,95.373681,315.500500,102.404481C304.154500,111.729281,306.438426,144.004851,270.131426,154.254851C260.649426,156.930851,236.071074,146.989814,217.576000,145.181036C190.569889,145.403703,167.207611,130.082581,145.690538,163.328666C124.837074,195.549407,112.122000,220.953850,126.422000,259.251850C142.468000,302.226850,142.422000,358.543000,126.422000,385.325000C112.545000,408.552000,131.381353,446.670405,154.764353,477.023405C195.116353,529.402405,194.702908,534.872000,232.539908,537.160000C305.995908,541.602000,288.548092,489.544701,363.462092,483.504701C415.082092,479.341701,461.151000,536.573701,497.869000,483.504701Z"

/>
</path>
</svg>