<svg width="341" height="210" viewBox="0 0 341 210" fill="none" xmlns="http://www.w3.org/2000/svg">
<g clip-path="url(#clip0)">
<rect x="7.82129" y="8.25391" width="325.419" height="180.895" rx="3" stroke="#000851" stroke-width="2"/>
<path d="M111.334 200.405C110.7 198.56 112.07 196.639 114.021 196.639H226.863C228.737 196.639 230.073 198.457 229.514 200.245C228.043 204.951 223.684 208.156 218.753 208.156H122.195C117.291 208.156 112.928 205.042 111.334 200.405Z" stroke="#000851" stroke-width="2"/>
<path d="M116.998 201.691C116.475 200.752 117.154 199.596 118.23 199.596H222.684C223.691 199.596 224.344 200.659 223.889 201.557C222.758 203.791 220.467 205.199 217.964 205.199H122.966C120.488 205.199 118.204 203.857 116.998 201.691Z" stroke="#000851" stroke-width="2"/>
<rect x="1.06152" y="1.91809" width="338.938" height="193.566" rx="3" stroke="#000851" stroke-width="2"/>
</g>
<defs>
<clipPath id="clip0">
<rect width="340.938" height="209.083" fill="white" transform="translate(0.0615234 0.918091)"/>
</clipPath>
</defs>
</svg>
